<?xml version="1.0" standalone="no"?>
<!DOCTYPE svg PUBLIC "-//W3C//DTD SVG 20010904//EN"
 "http://www.w3.org/TR/2001/REC-SVG-20010904/DTD/svg10.dtd">
<svg version="1.0" xmlns="http://www.w3.org/2000/svg"
 width="1000.000000pt" height="934.000000pt" viewBox="0 0 1000.000000 934.000000"
 preserveAspectRatio="xMidYMid meet">

<g transform="translate(0.000000,934.000000) scale(0.100000,-0.100000)"
fill="#000000" stroke="none">
<path d="M4792 8845 c3 -3 50 -12 104 -20 131 -20 229 -46 339 -90 86 -35 280
-139 290 -155 3 -5 -9 -12 -27 -15 -18 -4 -35 -11 -38 -14 -3 -4 -34 -24 -70
-44 -36 -20 -76 -46 -90 -58 l-25 -21 32 18 32 18 69 -47 c174 -119 276 -231
370 -407 43 -79 96 -224 89 -243 -2 -7 -14 17 -26 53 -12 36 -31 81 -42 100
-11 19 -17 26 -14 15 20 -59 23 -78 19 -122 -2 -26 -9 -67 -15 -90 -8 -30 -8
-64 0 -125 7 -46 13 -109 15 -140 5 -65 22 -96 57 -100 13 -2 29 -9 35 -17 9
-12 15 0 27 55 29 125 38 238 35 400 l-3 159 -44 70 c-24 39 -70 103 -103 144
-44 54 -57 76 -47 81 10 7 10 11 0 24 -7 8 -16 14 -19 13 -4 -1 -8 2 -9 6 0 5
-14 23 -29 40 -16 18 -2 6 31 -25 57 -55 61 -57 73 -38 10 17 9 26 -12 58 -13
21 -47 63 -76 95 -29 31 -46 55 -38 52 15 -6 58 -55 120 -136 24 -32 39 -44
48 -39 20 12 -58 142 -147 245 -75 88 -85 114 -41 116 18 1 19 2 5 6 -10 3
-27 -3 -37 -12 -17 -15 -23 -13 -107 29 -228 114 -351 145 -632 161 -58 3
-102 3 -99 0z m905 -599 c33 -33 70 -77 83 -96 l23 -35 -34 30 c-62 54 -169
159 -169 166 0 20 46 -10 97 -65z"/>
<path d="M4570 8819 c-109 -9 -223 -29 -323 -56 -92 -26 -60 -25 59 2 94 21
305 45 395 45 16 0 29 4 29 8 0 11 -36 11 -160 1z"/>
<path d="M3870 8634 c0 -8 5 -12 10 -9 6 4 8 11 5 16 -9 14 -15 11 -15 -7z"/>
<path d="M3795 8584 l-40 -35 50 32 c63 40 61 39 44 39 -8 0 -32 -16 -54 -36z"/>
<path d="M4385 8570 c-94 -15 -125 -38 -125 -92 0 -33 -36 -88 -59 -88 -29 0
-82 -25 -74 -35 5 -4 0 -5 -9 -2 -22 8 -50 -2 -42 -14 3 -5 -3 -6 -12 -2 -12
4 -15 3 -10 -5 4 -8 2 -10 -7 -6 -8 3 -22 -3 -32 -12 -10 -10 -27 -19 -38 -19
-11 -1 -26 -10 -33 -19 -7 -10 -14 -16 -16 -14 -4 3 -122 -75 -126 -84 -7 -15
-29 -8 -68 22 -21 16 -47 30 -57 30 -36 0 -169 -156 -248 -291 -49 -84 -107
-219 -113 -262 -3 -18 -14 -75 -25 -127 -37 -170 -39 -330 -3 -330 4 0 6 39 4
86 -4 103 19 258 54 362 58 174 195 399 299 490 49 43 72 51 93 30 10 -10 5
-19 -21 -43 -157 -144 -296 -388 -357 -626 -27 -104 -50 -308 -34 -302 6 2 14
41 17 93 7 97 38 254 59 298 10 21 21 28 50 30 38 3 38 3 32 -30 -3 -18 -13
-59 -20 -90 -18 -73 -33 -232 -26 -277 3 -23 1 -32 -6 -27 -19 11 -73 15 -66
5 3 -5 9 -7 14 -4 15 9 28 -20 49 -110 67 -286 232 -497 486 -621 132 -64 241
-88 400 -88 256 0 459 75 688 256 27 21 58 38 69 38 28 0 128 -101 128 -129 0
-41 -128 -139 -297 -228 -191 -100 -199 -110 -164 -231 35 -122 35 -120 13
-89 -11 16 -22 24 -26 19 -3 -6 5 -23 19 -38 14 -15 23 -34 21 -41 -3 -7 1
-13 9 -13 15 0 16 -3 19 -37 3 -48 -306 -92 -479 -68 -27 4 -67 16 -87 26 -20
10 -74 25 -120 33 -127 22 -169 33 -215 56 -23 11 -47 20 -54 20 -22 0 -186
92 -255 143 -38 29 -105 88 -149 132 -43 44 -70 67 -58 50 11 -16 30 -39 42
-49 13 -12 19 -26 16 -37 -4 -11 2 -25 14 -36 15 -13 17 -19 8 -25 -9 -6 -9
-10 1 -17 21 -13 -25 -22 -56 -10 -14 5 -38 7 -53 4 -15 -4 -37 -1 -49 5 -12
6 -25 8 -28 4 -4 -4 -1 -9 6 -11 6 -3 10 -8 7 -13 -3 -4 14 -11 38 -14 23 -4
53 -14 67 -22 17 -11 19 -13 5 -9 -11 4 -42 10 -68 14 -40 7 -47 6 -43 -6 4
-8 9 -33 12 -55 7 -38 6 -40 -15 -33 -22 7 -22 6 -6 -18 10 -15 19 -57 22
-101 l6 -76 39 -12 c52 -15 92 -2 96 32 1 14 -9 72 -22 130 -13 58 -22 107
-21 108 2 2 13 -28 24 -67 12 -39 30 -103 42 -142 11 -38 29 -79 40 -90 19
-19 19 -19 -3 -15 -58 12 -163 17 -153 8 6 -6 28 -12 50 -14 l40 -4 -47 -8
c-59 -10 -108 8 -108 41 0 26 -12 35 -33 27 -20 -7 -27 -27 -19 -56 l6 -23 5
23 c7 29 27 29 23 1 -2 -12 4 -53 12 -92 9 -40 18 -88 20 -107 2 -19 4 -38 5
-42 0 -5 7 -8 15 -8 12 0 12 7 1 43 -17 58 -9 130 19 155 23 21 82 40 71 22
-3 -5 -2 -10 3 -10 6 0 24 -20 40 -45 39 -60 61 -169 42 -214 -7 -17 -17 -31
-22 -31 -6 0 -7 -8 -3 -17 5 -15 4 -16 -6 -5 -7 6 -22 12 -34 12 -17 0 -16 -3
10 -20 16 -10 32 -15 35 -10 3 5 32 -4 65 -21 54 -26 195 -66 299 -84 21 -3
36 -8 34 -11 -7 -6 -209 34 -259 51 -23 9 -45 13 -48 10 -3 -3 5 -8 17 -12 12
-3 19 -9 17 -14 -3 -4 14 -18 37 -30 55 -27 105 -74 129 -122 11 -21 40 -50
67 -68 26 -17 36 -27 22 -22 -14 4 -53 8 -87 8 -55 0 -66 -3 -90 -27 l-27 -27
50 25 c61 32 107 29 196 -13 95 -45 177 -126 232 -231 l45 -87 1 53 c0 29 7
69 15 89 19 44 19 47 -1 39 -51 -20 -159 141 -133 197 19 40 54 56 161 72 143
21 146 22 163 55 21 41 19 68 -17 203 l-31 120 26 23 c39 33 86 44 220 51 79
4 123 11 132 20 16 16 29 17 19 2 -8 -13 26 -7 146 27 46 13 99 24 117 24 43
0 92 -21 118 -49 27 -31 76 -184 60 -191 -8 -3 -9 -12 -4 -25 4 -11 8 -15 8
-8 1 7 10 17 21 23 49 26 84 -42 38 -74 -16 -12 -25 -13 -35 -4 -7 6 -15 9
-18 6 -8 -7 7 -48 16 -43 12 8 32 -34 26 -56 -3 -10 -2 -17 3 -14 11 7 22 -75
11 -89 -6 -7 -4 -18 5 -31 8 -10 12 -27 8 -37 -3 -9 1 -32 9 -50 16 -36 42
-111 59 -170 9 -32 7 -42 -17 -85 -35 -64 -65 -99 -92 -108 -18 -5 -23 -2 -23
11 0 24 -30 45 -45 31 -9 -9 -7 -16 7 -31 21 -23 24 -41 6 -30 -10 6 -10 4 -2
-7 29 -37 26 -58 -15 -111 -46 -56 -99 -160 -102 -198 -4 -36 23 -190 33 -190
4 0 8 -14 8 -30 l0 -30 -42 30 c-48 35 -126 61 -177 59 -34 -1 -33 -2 10 -9
55 -9 133 -42 145 -61 17 -27 101 -214 107 -240 5 -21 2 -28 -19 -38 -22 -10
-25 -16 -20 -39 9 -38 53 -75 81 -68 20 5 25 -1 44 -51 12 -31 18 -60 14 -64
-4 -4 -30 -16 -58 -27 -47 -18 -50 -22 -53 -59 -5 -71 123 -449 265 -778 153
-354 402 -795 450 -795 8 0 29 11 47 25 27 20 32 30 28 52 -3 18 -1 24 6 19 7
-4 20 -2 31 3 17 10 20 6 26 -32 3 -23 10 -51 14 -62 27 -67 34 -94 32 -123
-1 -38 25 -95 41 -90 21 7 19 25 -3 31 -14 4 -20 11 -16 21 3 8 1 17 -6 20 -9
3 -9 5 0 5 7 1 10 9 7 19 -4 11 4 7 20 -11 14 -15 26 -39 26 -53 0 -14 15 -52
32 -84 32 -57 32 -59 15 -78 -18 -20 -17 -22 53 -117 78 -106 86 -120 72 -129
-11 -7 -62 49 -142 156 -38 52 -45 55 -74 33 -19 -15 -56 -22 -43 -8 10 9 -49
33 -83 33 -15 0 -35 9 -45 20 -10 11 -24 20 -31 20 -7 0 -16 10 -19 23 -7 21
-62 77 -77 77 -5 0 -8 4 -8 10 0 5 6 7 13 4 17 -6 52 32 38 41 -6 3 -15 4 -20
0 -5 -3 -12 -1 -16 5 -4 6 -11 8 -16 5 -5 -4 -9 1 -9 9 0 9 -4 16 -8 16 -5 0
-9 6 -9 13 0 9 11 12 31 10 l31 -3 -29 11 c-24 10 -27 15 -22 40 5 27 4 28
-14 17 -16 -11 -22 -9 -34 7 -9 11 -16 26 -16 33 0 7 -5 10 -12 6 -7 -4 -8 -3
-4 5 7 11 -27 65 -35 56 -2 -2 -15 12 -27 32 -13 19 -18 32 -11 27 8 -4 -5 14
-27 41 -96 115 -291 472 -390 710 -48 116 -110 302 -164 485 -23 80 -48 154
-56 164 -13 18 -16 18 -53 4 -30 -12 -43 -13 -52 -4 -8 6 -4 0 8 -14 11 -14
24 -35 28 -47 5 -19 3 -23 -16 -23 -16 0 -20 -3 -13 -10 12 -12 6 -72 -7 -65
-4 3 -13 -4 -19 -16 -10 -17 -9 -20 1 -14 8 6 10 4 4 -5 -4 -7 -8 -34 -7 -59
l1 -46 -15 50 c-8 28 -39 129 -68 225 -30 96 -56 187 -60 202 -6 27 -5 27 19
16 13 -6 27 -19 31 -30 3 -10 9 -16 13 -14 8 5 52 -35 76 -69 14 -19 14 -18
15 15 0 19 7 44 15 54 25 34 17 116 -11 116 -8 0 -13 10 -13 23 1 12 -6 74
-14 137 -19 136 -24 250 -13 268 6 10 3 12 -10 10 -11 -2 -22 -7 -26 -12 -15
-21 -40 21 -70 118 -17 55 -37 104 -42 108 -6 4 -7 8 -2 8 5 0 3 7 -4 15 -6 8
-8 20 -4 26 5 8 3 9 -6 4 -9 -6 -10 -2 -5 15 5 16 4 20 -4 15 -8 -5 -10 1 -5
21 5 18 3 25 -4 21 -5 -4 -15 7 -21 25 -14 39 -14 47 0 28 8 -11 9 -6 3 20
-11 47 -11 158 0 195 6 20 5 27 -1 20 -6 -5 -18 -39 -27 -75 -20 -74 -52 -114
-111 -141 -73 -34 -131 -22 -198 40 l-38 36 14 -35 c8 -19 77 -183 152 -365
308 -741 328 -797 490 -1435 51 -201 109 -417 129 -481 68 -220 83 -333 51
-375 -8 -10 -15 -29 -15 -42 -1 -60 -47 -80 -110 -47 -17 9 -30 12 -30 9 0 -4
-8 0 -18 9 -20 19 -19 23 -28 -78 -4 -43 -1 -73 11 -105 9 -25 32 -90 51 -145
19 -54 39 -104 44 -109 15 -15 12 -30 -4 -17 -12 10 -13 5 -5 -31 6 -24 12
-52 16 -62 5 -18 0 -19 -86 -14 -58 4 -117 0 -164 -9 -130 -25 -290 -52 -367
-61 l-75 -9 65 -2 c37 0 72 -7 79 -13 8 -7 11 -8 8 -2 -8 14 75 27 119 19 16
-3 59 -2 97 3 65 8 67 8 61 -12 -19 -59 -24 -66 -51 -66 -16 0 -83 -5 -150
-10 -101 -8 -127 -7 -150 5 -32 17 -153 20 -251 6 -52 -8 -68 -7 -94 7 -23 13
-32 14 -35 4 -3 -7 -11 -19 -19 -26 -16 -16 -18 -73 -4 -96 8 -13 56 -15 317
-17 341 -2 420 -8 602 -47 68 -14 125 -26 127 -26 11 0 29 -122 74 -502 27
-234 50 -433 50 -442 0 -9 6 -16 13 -16 12 0 -14 237 -98 893 -5 44 -4 47 12
38 11 -5 93 -32 183 -60 170 -51 287 -99 482 -197 142 -71 203 -112 270 -178
l53 -53 38 -204 c21 -112 41 -212 43 -221 4 -15 17 -18 65 -18 32 0 59 3 59 8
0 4 -13 75 -30 157 -16 83 -30 157 -30 166 0 25 61 50 101 42 49 -9 134 -48
158 -72 13 -13 21 -34 21 -53 0 -26 -6 -37 -30 -50 -58 -33 -75 -125 -32 -178
15 -18 26 -21 82 -18 63 3 65 4 82 38 16 32 17 33 18 10 0 -30 20 -66 20 -38
0 18 -37 220 -46 251 -4 13 1 17 19 17 28 0 27 3 63 -187 15 -78 21 -93 37
-93 13 0 17 5 13 18 -3 9 -15 69 -27 132 -20 103 -25 118 -53 141 -28 25 -30
28 -17 52 11 21 11 32 -2 69 -11 31 -17 97 -20 243 -6 251 -11 268 -89 284
-145 31 -600 168 -610 184 -4 7 -8 8 -8 3 0 -6 -5 -5 -12 2 -7 7 -19 12 -28
12 -35 -1 46 -33 260 -104 124 -40 269 -84 322 -96 54 -12 100 -26 103 -30 11
-18 46 -167 52 -222 l6 -57 -39 10 c-22 4 -43 9 -49 10 -5 0 1 4 15 8 19 5 26
14 28 40 4 41 -18 76 -66 100 -43 22 -292 125 -567 236 -104 41 -203 82 -218
89 -15 7 -59 14 -98 15 -78 2 -94 -10 -65 -54 12 -18 25 -25 49 -25 17 0 39
-5 47 -11 24 -17 -74 -2 -110 16 -27 14 -109 27 -235 38 -37 3 -36 4 10 5 59
3 125 23 135 43 19 35 21 59 6 59 -14 0 -33 35 -28 53 1 4 -22 4 -50 1 -61 -7
-269 12 -277 25 -4 5 -20 11 -36 13 -27 3 -30 7 -33 42 l-3 39 76 -7 c116 -11
276 -41 414 -80 117 -33 171 -55 106 -43 -16 3 -65 9 -108 12 l-78 7 15 -30
c14 -27 20 -29 92 -35 42 -4 92 -7 111 -7 30 0 33 2 23 19 -5 11 -10 22 -10
25 0 3 32 -6 72 -20 39 -13 74 -22 76 -19 10 10 -216 100 -368 146 -69 21
-119 38 -113 38 8 1 11 11 7 31 -5 21 -2 31 8 35 19 7 103 -29 140 -60 16 -14
34 -25 39 -25 5 0 38 -18 73 -39 97 -60 217 -114 228 -103 12 12 48 4 48 -10
0 -6 -12 -7 -27 -4 -57 13 57 -43 140 -70 236 -75 492 -154 499 -154 5 0 6 6
2 12 -4 7 3 4 16 -7 l23 -20 -13 25 c-12 23 -12 24 3 11 10 -7 17 -19 17 -26
0 -13 29 -29 37 -21 3 2 0 14 -7 25 -8 16 -8 21 1 21 6 0 -1 14 -16 31 -17 21
-25 41 -23 59 1 15 -5 39 -15 53 -25 38 -21 46 8 14 14 -15 32 -27 39 -27 38
0 86 -112 86 -200 0 -29 8 -44 39 -74 22 -22 45 -51 51 -67 8 -17 17 -26 26
-22 17 6 18 57 2 75 -7 7 -14 20 -16 28 -31 140 -38 192 -25 197 19 8 16 20
-8 26 -16 4 -19 10 -14 28 6 18 4 21 -10 15 -11 -4 -30 3 -51 19 -34 26 -37
45 -8 45 8 0 13 -4 9 -9 -3 -5 -1 -12 5 -16 6 -4 10 5 9 22 0 33 -88 168 -108
168 -21 0 -144 217 -129 226 9 6 8 10 -5 15 -16 6 -78 -5 -121 -22 -10 -4 -16
-1 -16 9 0 8 -8 25 -19 38 -10 13 -22 35 -26 49 -4 14 -24 61 -45 105 -42 89
-60 132 -60 144 0 4 18 16 39 26 l40 18 -25 65 c-13 36 -22 67 -20 69 2 2 16
-27 31 -66 18 -46 32 -68 41 -64 14 5 7 37 -39 159 -14 38 -35 103 -47 144
-12 41 -26 86 -30 100 -4 14 -25 88 -46 165 l-38 140 -9 -50 c-5 -27 -9 -75
-9 -105 0 -45 -2 -50 -8 -25 l-8 30 -1 -32 c0 -18 4 -33 9 -33 23 0 9 -80 -26
-149 -36 -71 -36 -72 -20 -106 14 -29 21 -34 40 -29 19 4 25 1 30 -21 9 -34
-1 -46 -18 -22 -18 23 -30 22 -23 -3 3 -11 1 -20 -4 -20 -4 0 -6 -6 -3 -13 3
-8 0 -26 -6 -41 -7 -20 -16 -27 -29 -23 -17 4 -17 2 -5 -22 16 -30 18 -55 5
-47 -22 14 -198 354 -260 502 -23 54 -46 107 -51 116 -36 64 -216 546 -207
554 2 2 33 -72 69 -164 78 -194 180 -433 184 -429 2 1 -28 117 -67 257 -85
313 -101 400 -93 506 4 43 11 86 16 94 6 10 8 4 4 -19 -9 -53 4 -143 20 -137
11 4 14 -6 14 -42 0 -34 3 -43 10 -32 6 9 10 10 10 3 0 -6 -4 -14 -8 -17 -5
-3 -8 -45 -8 -93 1 -75 5 -96 29 -145 16 -32 33 -58 38 -58 6 0 7 5 4 10 -4 6
-2 17 5 24 6 8 8 26 4 41 -5 21 -9 24 -16 13 -8 -10 -8 -9 -4 5 3 9 1 29 -4
42 -5 14 -16 54 -24 88 -20 86 5 51 28 -40 10 -38 35 -117 56 -178 78 -220
170 -528 170 -567 0 -10 -4 -18 -10 -18 -5 0 -10 16 -10 36 0 40 -30 134 -43
134 -5 0 -6 10 -3 23 3 12 3 16 0 10 -8 -18 -27 -16 -21 1 3 8 -1 22 -9 33
-13 17 -14 16 -8 -12 18 -85 47 -183 61 -204 8 -13 13 -35 10 -50 -3 -15 2
-40 12 -58 l16 -33 28 26 c29 27 33 35 15 31 -22 -4 -21 34 1 40 11 3 24 18
30 34 5 16 14 29 19 29 4 0 16 16 25 35 15 32 16 45 3 143 -8 59 -22 140 -30
180 -17 77 -20 149 -10 177 6 14 9 12 24 -10 17 -25 18 -26 23 -5 3 11 -1 34
-10 50 -18 38 -13 46 52 75 57 25 68 45 54 95 -4 14 -10 94 -13 177 -8 192
-11 204 -55 252 l-36 39 1 135 c1 75 5 140 8 146 4 6 2 18 -3 28 -10 19 -24
54 -25 65 -1 3 -4 9 -7 12 -3 3 18 30 47 60 l52 55 118 6 c109 6 123 8 165 36
53 34 102 37 194 14 86 -22 433 -130 548 -170 92 -32 120 -32 58 0 -29 15
-557 182 -648 205 -29 8 -53 17 -53 20 0 4 12 12 27 19 15 7 22 16 17 21 -5 4
-79 43 -164 86 -643 321 -782 483 -955 1119 -43 157 -65 226 -77 242 -5 6 -6
22 -3 35 3 13 -20 125 -55 263 -34 132 -61 257 -62 279 -1 53 22 80 143 163
223 153 429 376 544 588 21 39 43 73 49 77 7 5 5 8 -5 8 -9 0 -24 9 -34 20
-17 18 -17 20 -2 14 12 -4 17 -1 17 11 0 12 -6 16 -20 12 -11 -3 -18 -1 -14 4
3 5 0 9 -6 9 -8 0 -11 19 -9 58 1 31 1 73 0 92 -2 33 -2 34 -16 16 -8 -11 -15
-31 -15 -45 0 -14 -5 -33 -10 -41 -7 -11 -9 -6 -8 20 1 19 -1 56 -5 82 -8 48
-16 57 -107 126 -53 42 -86 101 -104 190 -53 263 -162 436 -399 633 -5 4 23
33 62 64 40 32 69 60 66 63 -4 4 -46 -22 -151 -97 l-34 -24 -63 31 c-117 57
-178 82 -197 82 -10 0 -22 5 -25 11 -4 6 -13 8 -20 5 -7 -2 -16 -2 -19 2 -4 3
-12 7 -19 8 -74 11 -92 16 -104 25 -9 9 -13 8 -13 0 0 -8 -12 -11 -32 -9 -27
2 -34 9 -42 37 -14 50 -40 57 -137 38 -84 -17 -96 -17 -84 2 22 37 200 72 269
52 42 -11 50 4 10 19 -29 11 -95 11 -169 0z m218 -217 c-7 -2 -21 -2 -30 0
-10 3 -4 5 12 5 17 0 24 -2 18 -5z m-3 -23 c14 -4 -15 -5 -65 -3 -49 3 -94 6
-100 8 -21 7 141 3 165 -5z m67 -16 c-3 -3 -12 -4 -19 -1 -8 3 -5 6 6 6 11 1
17 -2 13 -5z m-332 -14 c-28 -12 -37 -12 -30 0 3 6 16 10 28 9 21 0 21 -1 2
-9z m173 3 c-27 -2 -69 -2 -95 0 -27 2 -5 3 47 3 52 0 74 -1 48 -3z m276 -23
c49 -19 89 -41 211 -118 28 -18 72 -36 98 -41 27 -5 59 -19 74 -32 27 -26 93
-113 93 -123 0 -3 -24 -6 -52 -6 l-53 0 -48 65 c-80 109 -212 204 -357 258
-41 15 -62 25 -47 22 15 -3 52 -14 81 -25z m-181 13 c-7 -2 -21 -2 -30 0 -10
3 -4 5 12 5 17 0 24 -2 18 -5z m137 -33 c18 -12 2 -12 -25 0 -13 6 -15 9 -5 9
8 0 22 -4 30 -9z m73 -31 c71 -36 161 -105 219 -168 66 -71 134 -179 122 -191
-19 -19 -51 3 -79 53 -44 79 -177 207 -265 255 -41 23 -71 42 -67 42 14 0 108
-51 150 -81 41 -30 57 -36 57 -21 0 11 -79 68 -144 103 -60 33 -55 39 7 8z
m-218 -45 c184 -43 354 -181 438 -354 75 -153 95 -313 61 -478 -62 -304 -299
-560 -595 -642 -363 -100 -725 83 -844 427 -140 403 102 881 519 1024 139 48
282 56 421 23z m-766 -99 c-51 -52 -95 -95 -97 -95 -2 0 6 13 17 29 22 30 159
161 169 161 3 0 -37 -43 -89 -95z m1426 -17 c35 -41 115 -167 115 -181 0 -4
-8 -7 -17 -7 -11 0 -29 19 -44 48 -15 26 -47 75 -73 108 -25 34 -46 65 -46 68
0 19 33 0 65 -36z m88 -429 c94 -15 108 -29 29 -29 -34 0 -62 -4 -62 -10 0 -5
53 -53 118 -106 110 -91 170 -144 132 -117 -85 61 -271 201 -292 221 -31 28
-36 52 -12 52 8 0 48 -5 87 -11z m85 -75 c12 -4 22 -11 22 -16 0 -14 -53 -5
-58 10 -4 13 2 15 36 6z m-108 -280 c0 -23 -34 -145 -41 -150 -20 -12 -21 6
-3 80 11 47 23 76 31 76 7 0 13 -2 13 -6z m50 -81 c-14 -71 -25 -92 -39 -78
-7 7 -5 30 5 70 22 87 23 90 35 78 7 -7 7 -29 -1 -70z m60 -27 c-8 -44 -17
-66 -26 -66 -17 0 -17 4 -3 72 15 77 18 83 31 70 8 -8 7 -29 -2 -76z m-1830
-361 c0 -5 -9 4 -20 20 -11 17 -20 37 -20 45 1 16 39 -48 40 -65z m1809 53
c11 -11 13 -10 7 2 -5 10 -3 9 7 -2 12 -15 16 -16 34 -3 21 15 21 14 9 -33
-17 -63 -28 -84 -92 -168 -47 -62 -115 -124 -137 -124 -4 0 -7 7 -7 15 0 9 -7
26 -14 38 -14 21 -12 26 36 87 28 36 57 80 65 99 16 38 61 101 72 101 4 0 13
-6 20 -12z m126 -128 c-10 -22 -23 -40 -28 -40 -6 0 -7 -3 -4 -6 4 -4 -13 -30
-36 -58 -23 -28 -49 -59 -57 -70 -26 -32 -70 -77 -70 -70 0 3 33 50 73 103 39
54 85 119 100 145 33 57 48 54 22 -4z m-1870 -700 c22 -15 64 -39 93 -54 30
-15 52 -30 49 -33 -9 -8 -165 79 -190 106 -24 26 -14 22 48 -19z m-135 -347
c0 -25 0 -26 -20 -8 -11 10 -20 22 -20 27 0 4 9 8 20 8 15 0 20 -7 20 -27z
m368 -160 c13 -8 32 -28 43 -46 28 -44 21 -143 -11 -169 -12 -10 -26 -15 -31
-12 -5 3 -9 0 -9 -5 0 -18 -52 -12 -86 8 -57 35 -86 136 -55 194 16 30 76 58
106 50 11 -3 30 -12 43 -20z m-224 -211 c-4 -6 -125 29 -160 45 -36 17 -45 33
-19 33 17 0 65 28 77 45 4 5 8 23 8 39 0 24 10 11 48 -65 27 -52 48 -95 46
-97z m436 -33 c0 -28 -29 -64 -31 -38 -2 25 3 74 8 83 8 13 23 -16 23 -45z
m-353 -44 c113 -24 171 -44 128 -45 -26 0 -197 44 -250 65 -22 8 -29 13 -15
10 14 -3 75 -16 137 -30z m220 -245 l11 -30 -29 21 c-33 23 -37 39 -11 39 10
0 22 -12 29 -30z m1246 -376 c3 -4 0 -13 -8 -21 -8 -8 -15 -23 -15 -34 0 -11
-4 -18 -8 -15 -13 8 -1 76 12 76 7 0 15 -3 19 -6z m27 -48 c0 -8 -5 -18 -11
-22 -14 -8 -33 11 -25 25 10 16 36 13 36 -3z m53 -11 c-3 -9 -8 -14 -10 -11
-3 3 -2 9 2 15 9 16 15 13 8 -4z m-718 -273 c47 -139 85 -255 85 -259 0 -3
-16 24 -35 60 -19 36 -35 73 -35 81 0 8 -3 16 -8 18 -12 5 -62 108 -62 129 0
10 -4 19 -10 19 -5 0 -10 9 -10 20 0 11 -4 20 -9 20 -6 0 -10 8 -9 18 0 9 -5
31 -10 49 -6 17 -8 34 -4 37 3 3 0 6 -6 6 -6 0 -5 11 5 31 8 16 17 29 19 26 2
-2 42 -117 89 -255z m999 -68 c3 -9 6 -29 6 -45 0 -23 -5 -30 -27 -35 -16 -4
-34 -14 -41 -23 -11 -14 -13 -11 -8 21 2 21 0 40 -5 43 -16 11 -10 24 19 39
35 20 48 20 56 0z m576 -77 c0 -2 -11 -18 -24 -36 l-24 -33 -13 24 c-6 12 -8
20 -5 16 4 -3 16 2 27 13 16 16 39 26 39 16z m-630 -168 c30 -5 40 -39 65
-213 9 -61 19 -121 22 -133 9 -39 23 -25 23 22 0 29 4 44 12 43 6 -2 15 16 21
40 8 41 10 43 35 36 15 -4 46 -8 70 -9 23 -1 48 -7 54 -13 9 -9 16 -8 30 5 17
15 18 12 18 -86 0 -98 -1 -102 -20 -96 -37 12 -23 -37 38 -134 l34 -55 19 25
c18 24 19 23 19 -111 0 -74 3 -146 7 -159 4 -17 2 -22 -7 -19 -8 2 -19 31 -26
65 -16 77 -34 112 -79 152 -40 35 -68 37 -73 6 -11 -75 -16 -78 -61 -39 -67
56 -103 167 -146 452 -12 84 -25 155 -28 158 -3 3 -15 1 -26 -6 -18 -9 -22 -7
-31 15 -12 30 -13 86 -2 69 4 -7 18 -14 32 -15z m180 -39 c0 -5 -2 -10 -4 -10
-3 0 -8 5 -11 10 -3 6 -1 10 4 10 6 0 11 -4 11 -10z m-320 -104 c50 -78 54
-91 85 -290 29 -189 30 -208 4 -103 -10 44 -22 83 -25 88 -3 5 -19 -4 -36 -21
-28 -29 -30 -34 -25 -88 l6 -57 -15 65 c-39 172 -80 462 -68 481 9 15 27 -4
74 -75z m293 78 c9 -9 -4 -35 -14 -28 -5 3 -9 12 -9 20 0 14 12 19 23 8z m137
-45 c13 -23 -1 -49 -26 -49 -21 0 -38 38 -23 56 16 20 36 17 49 -7z m-84 -16
c-10 -10 -19 5 -10 18 6 11 8 11 12 0 2 -7 1 -15 -2 -18z m-578 -65 c16 -16
15 -38 -2 -38 -13 0 -26 20 -26 41 0 13 14 11 28 -3z m677 2 c-3 -5 -12 -10
-18 -10 -7 0 -6 4 3 10 19 12 23 12 15 0z m-218 -62 c-3 -7 -5 -2 -5 12 0 14
2 19 5 13 2 -7 2 -19 0 -25z m-850 -95 c-4 -17 -4 -17 -12 0 -4 9 -4 25 0 35
8 16 8 16 12 0 3 -10 3 -26 0 -35z m540 -65 c-3 -7 -5 -2 -5 12 0 14 2 19 5
13 2 -7 2 -19 0 -25z m122 -495 c22 -81 39 -149 37 -150 -7 -7 -106 276 -106
304 0 17 -11 93 -25 167 -35 191 -30 189 15 -6 21 -93 57 -234 79 -315z m-500
288 c7 -39 10 -75 6 -81 -3 -5 -1 -10 5 -10 6 0 9 -4 6 -9 -4 -5 -2 -20 3 -33
7 -18 6 -25 -3 -25 -22 0 -75 200 -62 233 12 31 32 -4 45 -75z m286 29 c3 -5
-2 -10 -12 -11 -17 0 -17 -1 0 -7 26 -11 104 -185 263 -587 129 -326 245 -571
373 -787 22 -36 22 -37 3 -47 -18 -9 -27 2 -93 105 -41 64 -84 131 -97 150
-51 80 -116 203 -175 334 -14 30 -34 75 -45 100 -52 115 -185 474 -217 582 -9
32 -13 63 -9 69 5 8 3 9 -6 4 -10 -6 -12 -3 -8 13 4 12 3 22 -1 22 -6 0 -6 22
-2 63 1 10 19 9 26 -3z m192 -52 c-3 -8 -6 -5 -6 6 -1 11 2 17 5 13 3 -3 4
-12 1 -19z m100 -10 c-3 -7 -5 -2 -5 12 0 14 2 19 5 13 2 -7 2 -19 0 -25z
m141 -267 c107 -143 119 -177 132 -380 6 -86 15 -187 20 -226 22 -163 10 -151
-41 42 -53 198 -80 285 -154 493 -35 96 -66 191 -69 210 l-7 35 17 -30 c9 -16
55 -81 102 -144z m272 -800 c12 -23 13 -31 3 -31 -5 0 -13 11 -20 25 -13 29 1
34 17 6z m51 -194 c-8 -8 -11 -3 -11 19 1 25 2 27 11 11 8 -14 8 -22 0 -30z
m-571 -52 c0 -5 -5 -3 -10 5 -5 8 -10 20 -10 25 0 6 5 3 10 -5 5 -8 10 -19 10
-25z m300 -390 c10 -13 9 -15 -8 -15 -22 0 -36 13 -25 24 10 10 20 7 33 -9z
m624 -58 c68 -117 156 -278 156 -284 0 -15 -180 265 -193 300 -11 30 17 19 37
-16z m-106 -119 c73 -102 84 -130 14 -37 -67 89 -112 156 -111 166 0 4 8 -3
17 -17 9 -13 45 -64 80 -112z m-628 22 c8 -5 11 -10 5 -10 -5 0 -17 5 -25 10
-8 5 -10 10 -5 10 6 0 17 -5 25 -10z m8 -60 c17 -11 32 -25 32 -30 0 -6 3 -9
8 -7 9 6 15 -70 7 -83 -9 -15 -58 14 -94 55 -60 68 -29 111 47 65z m133 -92
c13 -25 -8 -33 -32 -12 -11 10 -18 22 -16 28 2 6 -3 17 -12 24 -9 7 -1 5 17
-5 19 -10 38 -26 43 -35z m759 22 c6 -11 8 -20 6 -20 -3 0 -10 9 -16 20 -6 11
-8 20 -6 20 3 0 10 -9 16 -20z m-690 -30 c6 -11 8 -20 6 -20 -3 0 -10 9 -16
20 -6 11 -8 20 -6 20 3 0 10 -9 16 -20z m521 -7 c25 -27 32 -38 91 -127 17
-25 28 -54 27 -76 0 -33 -1 -34 -15 -15 -47 64 -93 142 -90 152 3 6 -2 14 -11
17 -10 4 -13 14 -10 27 4 16 2 19 -10 15 -18 -7 -46 12 -37 25 10 16 30 9 55
-18z m-230 -20 c13 -16 12 -17 -3 -4 -10 7 -18 15 -18 17 0 8 8 3 21 -13z
m-1211 -27 c153 -13 162 -15 154 -39 -6 -21 -5 -21 8 -4 13 17 22 18 161 6
142 -12 147 -13 141 -33 -15 -49 -39 -61 -127 -60 -50 1 -96 7 -119 17 -46 20
-51 12 -5 -9 l32 -15 -35 6 c-159 27 -313 45 -350 43 l-45 -3 3 38 c2 21 -1
43 -6 50 -12 14 51 15 188 3z m901 -3 c13 -16 12 -17 -3 -4 -10 7 -18 15 -18
17 0 8 8 3 21 -13z m234 -103 c28 -31 8 -37 -23 -7 -19 20 -22 27 -11 27 9 0
24 -9 34 -20z m65 0 c6 -11 8 -20 6 -20 -3 0 -10 9 -16 20 -6 11 -8 20 -6 20
3 0 10 -9 16 -20z m-2106 -6 c25 -10 19 -34 -9 -34 -18 0 -25 5 -25 20 0 21 8
24 34 14z m2419 -68 c12 -17 14 -25 6 -19 -9 7 -20 9 -24 5 -5 -4 -5 -2 -2 4
4 7 -1 18 -10 25 -14 12 -15 11 -8 -11 4 -14 4 -22 0 -18 -5 5 -9 21 -10 38
-1 24 1 28 12 18 8 -6 24 -25 36 -42z m-1230 37 c-7 -2 -19 -2 -25 0 -7 3 -2
5 12 5 14 0 19 -2 13 -5z m379 -5 c23 -13 49 -41 43 -46 -7 -8 -95 22 -95 33
0 27 19 31 52 13z m268 -93 c204 -76 543 -212 605 -242 47 -22 61 -34 63 -53
1 -14 -2 -31 -7 -39 -15 -23 -55 21 -49 53 3 14 2 26 -2 26 -14 0 -19 -42 -9
-68 l10 -27 -24 23 c-13 12 -26 19 -29 16 -4 -3 -42 11 -85 31 -43 21 -123 56
-178 80 -55 24 -165 72 -245 108 -80 36 -162 72 -183 81 -21 8 -36 20 -33 25
3 5 -4 11 -16 15 -22 5 -22 6 -3 20 14 10 26 11 45 4 14 -5 77 -29 140 -53z
m705 -792 c4 -25 9 -53 12 -62 3 -9 -10 1 -29 22 -20 20 -38 47 -41 60 -5 19
-2 22 22 24 27 2 29 -1 36 -44z m-75 -58 c0 -8 -7 -15 -15 -15 -8 0 -15 7 -15
15 0 8 7 15 15 15 8 0 15 -7 15 -15z m70 -35 c6 -12 10 -35 8 -53 -2 -24 -8
-32 -23 -32 -26 0 -50 44 -41 78 8 33 40 36 56 7z"/>
<path d="M4280 8155 c-289 -62 -518 -280 -602 -572 -33 -113 -32 -297 0 -403
96 -308 382 -495 703 -459 303 34 562 256 659 564 31 100 38 267 16 369 -79
355 -422 576 -776 501z m325 -80 c198 -59 352 -224 400 -427 22 -94 19 -247
-6 -338 -25 -92 -91 -219 -138 -266 -19 -18 -31 -34 -28 -34 4 0 -12 -17 -35
-37 -24 -21 -50 -45 -58 -53 -22 -23 -80 -63 -85 -58 -2 2 8 12 22 23 212 165
323 372 323 604 0 166 -55 305 -165 417 -64 65 -64 66 -13 8 112 -126 163
-261 161 -429 -1 -192 -66 -341 -208 -481 -132 -129 -297 -199 -470 -198 -152
1 -273 45 -390 141 -59 47 -60 48 -36 13 l23 -35 -32 35 c-141 157 -190 357
-140 570 85 352 401 595 745 572 28 -2 86 -14 130 -27z m35 -1220 c0 -6 -57
-35 -78 -40 -10 -2 -37 -11 -61 -20 -24 -9 -64 -18 -90 -20 l-46 -4 45 9 c54
11 191 59 205 71 10 10 25 12 25 4z"/>
<path d="M4515 8040 c-4 -7 -16 -10 -26 -7 -23 6 -26 -11 -3 -20 16 -6 52 22
42 32 -3 4 -9 1 -13 -5z"/>
<path d="M4695 7919 c-19 -7 -18 -8 3 -8 33 -1 114 -82 150 -149 49 -92 65
-171 59 -292 -3 -71 -12 -125 -27 -167 -88 -250 -325 -423 -580 -423 -152 0
-262 43 -361 140 -63 63 -73 86 -52 128 14 28 134 137 196 177 28 18 28 18 55
-8 76 -73 202 -75 295 -4 18 13 45 48 61 77 46 85 37 195 -21 262 -21 23 -3
54 97 163 l82 90 -85 -86 c-47 -47 -93 -101 -102 -119 -16 -31 -16 -34 4 -61
31 -42 42 -76 42 -135 1 -63 -38 -143 -85 -177 -45 -32 -117 -53 -164 -49
l-42 4 24 19 c13 10 37 19 53 19 15 0 42 8 58 17 17 9 43 16 60 17 21 1 35 10
52 35 13 19 23 43 22 55 0 19 -1 19 -10 -4 -14 -34 -49 -70 -69 -70 -9 0 -33
-9 -55 -20 -24 -12 -59 -20 -89 -20 -42 0 -55 5 -81 30 l-32 31 5 -33 c2 -18
14 -41 26 -50 11 -10 18 -18 15 -18 -3 0 -23 14 -44 30 -21 17 -44 30 -51 30
-16 0 -170 -121 -201 -158 l-23 -27 6 40 5 40 -17 -40 c-25 -60 -28 -116 -9
-140 9 -11 13 -14 9 -6 -5 10 -3 12 5 7 7 -5 10 -14 7 -21 -3 -8 2 -19 10 -25
8 -7 14 -9 14 -5 0 4 21 -12 47 -35 52 -46 146 -94 213 -109 67 -16 204 -13
274 5 200 52 367 207 444 412 34 91 42 257 17 352 -22 85 -68 170 -120 223
-58 59 -68 65 -90 56z"/>
<path d="M4353 7880 c-32 -19 -62 -60 -44 -60 14 0 23 -32 11 -44 -18 -18 19
-46 64 -46 45 0 79 18 97 52 9 16 8 23 -2 29 -10 6 -11 9 -1 9 6 0 12 7 12 15
0 8 -5 15 -11 15 -6 0 -20 11 -31 25 -23 30 -52 32 -95 5z m74 -26 c10 -26
-11 -49 -43 -49 -32 0 -44 26 -24 50 17 20 59 19 67 -1z"/>
<path d="M4380 7830 c0 -5 7 -10 15 -10 8 0 15 5 15 10 0 6 -7 10 -15 10 -8 0
-15 -4 -15 -10z"/>
<path d="M4004 7829 c-3 -6 1 -18 10 -27 15 -15 18 -15 36 6 11 12 18 20 14
17 -3 -2 -17 0 -30 5 -15 6 -26 6 -30 -1z"/>
<path d="M3933 7777 c-18 -22 -18 -22 2 -5 20 16 21 16 33 -2 15 -24 35 -26
30 -4 -2 9 -13 20 -25 25 -16 6 -26 2 -40 -14z"/>
<path d="M3925 7731 c-3 -6 3 -15 14 -21 24 -12 42 7 20 21 -18 11 -26 11 -34
0z"/>
<path d="M3880 7700 c-6 -11 -8 -20 -6 -20 3 0 10 9 16 20 6 11 8 20 6 20 -3
0 -10 -9 -16 -20z"/>
<path d="M3897 7683 c-12 -11 -8 -21 13 -26 24 -6 38 12 19 24 -17 11 -24 11
-32 2z"/>
<path d="M4170 7644 c-17 -15 -40 -44 -50 -64 -18 -34 -18 -41 -5 -66 l14 -27
9 34 c6 19 11 27 11 19 1 -13 2 -13 11 0 13 20 13 33 -1 24 -19 -12 7 29 33
51 l23 20 -22 -26 c-30 -34 -29 -49 1 -20 13 12 27 21 32 20 5 -1 22 1 37 6
21 6 25 10 15 16 -8 6 0 9 25 9 20 0 37 -4 37 -10 0 -5 6 -7 14 -4 7 3 28 -7
46 -23 29 -24 32 -25 21 -5 -6 12 -16 22 -22 22 -6 0 -7 5 -4 10 11 18 -59 40
-94 30 -20 -5 -42 -5 -57 1 -35 13 -39 12 -74 -17z m80 2 c0 -2 -7 -7 -16 -10
-8 -3 -12 -2 -9 4 6 10 25 14 25 6z m10 -20 c0 -2 -7 -7 -16 -10 -8 -3 -12 -2
-9 4 6 10 25 14 25 6z"/>
<path d="M3870 7621 c0 -5 9 -11 20 -14 13 -3 20 0 20 9 0 8 -9 14 -20 14 -11
0 -20 -4 -20 -9z"/>
<path d="M4440 7573 c0 -4 5 -15 10 -23 8 -13 10 -13 10 2 0 9 -4 20 -10 23
-5 3 -10 3 -10 -2z"/>
<path d="M4223 7500 c-29 -36 -30 -49 -2 -24 22 19 22 19 14 -6 -6 -22 -4 -21
24 10 16 19 30 31 31 26 0 -5 -7 -18 -17 -28 -9 -10 -14 -20 -11 -23 3 -3 18
11 33 32 20 25 24 35 12 30 -10 -4 -17 -2 -17 5 0 6 -11 1 -25 -12 -25 -23
-37 -16 -13 8 7 7 8 12 3 11 -6 0 -20 -13 -32 -29z"/>
<path d="M4140 7448 c0 -9 5 -20 10 -23 13 -8 13 5 0 25 -8 13 -10 13 -10 -2z"/>
<path d="M4421 7433 c-10 -26 -10 -27 4 -9 8 11 15 23 15 28 0 15 -7 8 -19
-19z"/>
<path d="M3777 7350 c-3 -11 -1 -20 4 -20 5 0 9 9 9 20 0 11 -2 20 -4 20 -2 0
-6 -9 -9 -20z"/>
<path d="M4329 7189 c-35 -38 -38 -78 -6 -113 34 -40 77 -43 115 -11 45 38 45
92 1 129 -41 35 -74 33 -110 -5z m51 11 c-20 -13 -33 -13 -25 0 3 6 14 10 23
10 15 0 15 -2 2 -10z m-59 -71 l-10 -24 0 26 c-1 14 2 29 6 33 12 12 14 -9 4
-35z m90 25 c17 -21 0 -49 -32 -49 -18 0 -25 6 -27 24 -6 38 34 55 59 25z m49
-9 c0 -8 -4 -15 -10 -15 -5 0 -10 7 -10 15 0 8 5 15 10 15 6 0 10 -7 10 -15z"/>
<path d="M4375 7139 c-10 -15 3 -25 16 -12 7 7 7 13 1 17 -6 3 -14 1 -17 -5z"/>
<path d="M4175 7163 c-9 -20 -14 -44 -12 -53 2 -9 10 0 20 23 18 41 44 58 58
36 5 -8 9 -9 9 -3 0 16 -22 34 -42 34 -11 0 -24 -14 -33 -37z"/>
<path d="M3814 7160 c0 -20 7 -25 19 -14 7 7 -2 34 -12 34 -4 0 -7 -9 -7 -20z"/>
<path d="M3791 5466 c-26 -27 -23 -66 6 -98 18 -21 63 -24 81 -6 18 18 15 73
-5 96 -29 33 -56 35 -82 8z m66 -42 c9 -25 -13 -40 -26 -16 -10 19 -6 32 11
32 5 0 11 -7 15 -16z"/>
<path d="M3932 5410 c0 -14 2 -19 5 -12 2 6 2 18 0 25 -3 6 -5 1 -5 -13z"/>
<path d="M5786 3861 c-4 -7 -5 -15 -2 -18 9 -9 19 4 14 18 -4 11 -6 11 -12 0z"/>
<path d="M6470 96 c0 -22 3 -27 11 -19 8 8 8 16 0 30 -9 16 -10 14 -11 -11z"/>
<path d="M6841 8532 c6 -17 104 -83 107 -73 5 16 -19 53 -31 48 -7 -3 -27 5
-46 16 -19 11 -32 15 -30 9z"/>
<path d="M6177 8483 c-16 -16 -4 -45 26 -63 30 -19 106 -28 120 -14 9 9 -25
43 -38 37 -7 -2 -16 1 -20 6 -9 16 -25 3 -18 -14 6 -18 2 -18 -31 -3 -20 8
-23 14 -15 24 17 20 -6 46 -24 27z"/>
<path d="M5249 8413 c-13 -16 -12 -17 4 -4 9 7 17 15 17 17 0 8 -8 3 -21 -13z"/>
<path d="M3426 8268 c-146 -147 -285 -373 -345 -562 -24 -75 -64 -233 -87
-343 -4 -21 23 -60 34 -49 9 9 32 190 26 208 -8 26 36 179 49 171 6 -3 7 -1 3
5 -10 16 59 179 118 279 66 111 106 165 213 281 46 50 81 92 77 92 -3 0 -43
-37 -88 -82z m-382 -792 c-3 -21 -8 -35 -11 -32 -2 2 -1 20 3 40 3 21 8 35 11
32 2 -2 1 -20 -3 -40z m-19 -101 c-4 -25 -9 -44 -12 -41 -2 2 -1 25 2 51 4 25
9 44 12 41 2 -2 1 -25 -2 -51z"/>
<path d="M5856 8281 c-4 -6 7 -36 23 -68 34 -65 39 -61 15 13 -19 56 -29 70
-38 55z"/>
<path d="M5814 8246 c-6 -15 62 -148 79 -155 5 -2 17 -24 28 -49 11 -24 21
-43 23 -41 7 7 -17 114 -29 129 -6 8 -26 41 -44 73 -33 58 -47 69 -57 43z"/>
<path d="M6935 8019 c-14 -22 64 -73 83 -54 9 9 -20 25 -46 25 -19 0 -22 4
-17 20 7 21 -9 28 -20 9z"/>
<path d="M6853 7823 c15 -2 39 -2 55 0 15 2 2 4 -28 4 -30 0 -43 -2 -27 -4z"/>
<path d="M6708 7801 c-172 -55 -276 -181 -330 -396 -18 -75 -22 -119 -22 -265
-1 -153 2 -185 22 -255 45 -157 125 -269 306 -430 47 -42 88 -86 91 -98 14
-62 31 -253 23 -258 -5 -3 -6 -23 -2 -44 3 -20 2 -40 -3 -44 -12 -8 -60 -270
-73 -400 -35 -357 27 -705 161 -903 76 -112 196 -211 364 -303 79 -43 238
-116 201 -92 -10 6 -31 22 -45 35 -24 21 -24 22 -3 12 51 -25 41 -2 -14 33
-33 20 -70 46 -84 57 l-25 21 34 -16 c28 -14 33 -14 28 -3 -3 10 9 22 38 36
l43 21 16 -22 c8 -12 15 -17 15 -11 1 6 -12 29 -29 52 l-29 41 15 101 c8 56
19 113 25 126 5 14 9 37 9 52 l1 27 27 -33 c31 -37 47 -40 62 -13 16 31 12 58
-16 114 -26 51 -103 167 -111 167 -5 0 4 -15 30 -53 10 -16 17 -30 15 -32 -8
-8 -136 171 -157 220 -12 28 -41 75 -65 105 -62 79 -68 93 -55 127 l11 28 65
-70 c66 -70 173 -208 206 -264 31 -52 -1 -36 -73 37 -36 37 -85 89 -108 116
-23 26 -42 46 -42 43 0 -3 32 -50 70 -103 39 -54 70 -102 70 -106 0 -4 4 -8
10 -8 5 0 7 8 4 18 -3 9 22 -13 56 -50 34 -38 68 -68 76 -68 24 0 63 72 80
149 9 42 30 105 45 140 35 78 36 88 4 121 l-25 26 35 -4 c42 -5 54 15 37 60
l-10 28 30 -25 c19 -16 35 -22 40 -17 5 5 14 121 20 257 18 374 -7 693 -77
1010 -35 159 -57 203 -117 235 -26 14 -53 31 -60 39 -11 11 -10 11 9 0 32 -19
35 -9 14 52 -35 99 -34 96 -21 77 16 -26 130 -101 130 -86 0 6 -15 27 -32 46
-23 23 -27 31 -14 26 16 -6 18 -4 12 12 -6 15 -2 14 19 -6 l27 -25 -4 45 c-2
38 0 45 15 44 19 -2 23 11 7 21 -5 3 -10 11 -10 17 0 17 31 -13 63 -62 16 -25
26 -36 22 -25 -4 11 -11 34 -16 52 -6 18 -14 35 -19 38 -6 4 -10 14 -10 23 0
10 3 13 8 6 11 -16 45 -27 36 -11 -16 27 -108 127 -116 127 -15 0 -98 73 -92
81 5 9 -14 22 -35 26 -8 1 -21 10 -30 19 -15 17 -15 17 4 3 19 -13 19 -13 6 4
-7 9 -21 16 -30 15 -8 -2 -16 3 -16 10 0 13 -43 51 -58 52 -5 0 -5 -6 -1 -12
4 -8 3 -10 -2 -5 -5 5 -9 14 -9 20 0 16 -167 102 -250 129 -60 19 -91 23 -218
23 -82 0 -138 3 -125 7 20 5 20 6 3 6 -11 1 -46 -7 -77 -17z m39 -7 c-3 -3
-12 -4 -19 -1 -8 3 -5 6 6 6 11 1 17 -2 13 -5z m-47 -14 c-8 -5 -19 -10 -25
-10 -5 0 -3 5 5 10 8 5 20 10 25 10 6 0 3 -5 -5 -10z m267 -210 l36 0 -39 -28
c-21 -16 -45 -36 -53 -46 -13 -16 -18 -14 -58 26 l-44 43 48 6 c26 3 54 4 61
2 8 -1 30 -3 49 -3z m-497 -62 c0 -9 -50 -121 -50 -114 0 20 34 116 42 116 4
0 8 -1 8 -2z m-63 -210 c-3 -8 -6 -5 -6 6 -1 11 2 17 5 13 3 -3 4 -12 1 -19z
m971 -53 c7 -14 12 -29 12 -33 -1 -10 -40 38 -40 49 0 18 17 8 28 -16z m-852
-25 c22 -7 51 -21 65 -32 13 -11 18 -16 10 -12 -11 5 -13 3 -7 -11 4 -10 9
-44 13 -74 3 -31 7 -58 9 -60 2 -2 -2 -11 -9 -19 -10 -13 -9 -15 6 -9 11 4 16
3 12 -3 -3 -5 2 -22 12 -37 17 -26 15 -26 -27 8 -25 21 -76 54 -113 74 l-69
38 7 61 c9 85 14 98 33 92 9 -3 35 -10 58 -16z m944 -15 c15 -28 10 -47 -13
-51 -11 -1 -20 9 -26 33 -6 20 -8 40 -5 44 8 13 30 0 44 -26z m-182 -53 c3
-32 -48 -162 -64 -162 -10 0 -32 30 -58 80 -41 80 -42 88 -4 105 18 8 53 14
78 12 43 -2 45 -3 48 -35z m-140 -196 c53 -58 77 -106 107 -218 52 -191 85
-453 85 -670 0 -89 -3 -108 -15 -108 -8 0 -15 9 -15 19 0 30 -19 35 -26 6 -3
-14 -12 -25 -19 -25 -9 0 -14 48 -18 183 -9 258 -37 426 -117 702 -51 177 -49
184 18 111z m483 -167 c61 -343 79 -606 64 -961 l-7 -178 -72 63 c-39 35 -105
91 -147 125 l-76 61 -7 188 c-10 279 -33 459 -82 655 -13 53 -24 101 -24 107
0 13 51 40 157 82 103 42 135 49 151 34 7 -6 26 -86 43 -176z m-1244 149 c-3
-8 -6 -5 -6 6 -1 11 2 17 5 13 3 -3 4 -12 1 -19z m74 -18 c42 0 135 -55 191
-111 69 -71 117 -155 158 -278 26 -77 32 -113 35 -205 3 -85 2 -99 -4 -59 -16
100 -19 104 -171 253 -128 126 -152 155 -184 220 -20 41 -39 92 -42 112 -6 35
-5 36 19 34 33 -4 31 17 -2 24 -13 3 -26 11 -27 18 -1 7 0 8 3 2 2 -5 14 -10
24 -10z m-64 -32 c-3 -8 -6 -5 -6 6 -1 11 2 17 5 13 3 -3 4 -12 1 -19z m20 0
c-3 -8 -6 -5 -6 6 -1 11 2 17 5 13 3 -3 4 -12 1 -19z m-10 -40 c-3 -8 -6 -5
-6 6 -1 11 2 17 5 13 3 -3 4 -12 1 -19z m32 -73 c0 -5 -6 1 -14 15 -8 14 -14
30 -14 35 0 6 6 -1 14 -15 8 -14 14 -29 14 -35z m80 -129 c9 -12 11 -16 3 -12
-15 9 -82 110 -82 123 0 4 14 -14 31 -42 17 -27 39 -59 48 -69z m36 -46 c10
-11 16 -20 13 -20 -3 0 -13 9 -23 20 -10 11 -16 20 -13 20 3 0 13 -9 23 -20z
m275 -437 c0 -59 -5 -128 -10 -153 l-9 -45 4 55 c3 30 5 102 5 159 0 57 3 102
6 99 3 -4 5 -55 4 -115z m-23 -235 c-3 -7 -5 -2 -5 12 0 14 2 19 5 13 2 -7 2
-19 0 -25z m530 -199 c23 -20 53 -85 53 -117 0 -21 -7 -33 -26 -43 -24 -13
-28 -12 -54 18 -25 27 -60 118 -60 153 0 16 65 7 87 -11z m93 -349 c29 -36
-10 1 -87 81 -78 80 -154 161 -168 180 -44 55 195 -189 255 -261z m-50 -192
c0 -14 -19 1 -31 25 -12 22 -12 22 10 3 11 -11 21 -23 21 -28z m-520 -43 c0
-8 -7 -15 -15 -15 -8 0 -15 7 -15 15 0 8 7 15 15 15 8 0 15 -7 15 -15z m105
-175 c0 -20 -6 -26 -27 -28 -24 -3 -28 0 -28 21 0 30 9 39 35 35 14 -2 20 -10
20 -28z m435 -441 c15 -28 5 -23 -15 7 -9 15 -12 23 -6 20 6 -4 16 -16 21 -27z"/>
<path d="M6510 6870 c8 -5 20 -10 25 -10 6 0 3 5 -5 10 -8 5 -19 10 -25 10 -5
0 -3 -5 5 -10z"/>
<path d="M6590 6822 c25 -23 49 -41 53 -42 4 0 -7 12 -25 28 -57 48 -75 57
-28 14z"/>
<path d="M6502 6824 c-42 -29 -19 -78 35 -72 20 2 29 9 31 26 2 13 8 20 15 16
7 -3 -1 6 -16 20 -33 30 -36 31 -65 10z m47 -18 c9 -10 8 -16 -4 -26 -17 -14
-45 -7 -45 13 0 29 30 37 49 13z"/>
<path d="M6665 6750 c10 -11 20 -20 23 -20 3 0 -3 9 -13 20 -10 11 -20 20 -23
20 -3 0 3 -9 13 -20z"/>
<path d="M6733 6560 c4 -15 0 -20 -15 -20 -14 0 -18 5 -14 15 3 8 1 15 -5 15
-5 0 -12 -7 -16 -16 -9 -24 24 -46 48 -33 20 10 26 59 8 59 -6 0 -9 -9 -6 -20z"/>
<path d="M7301 5707 c-14 -14 -14 -39 0 -71 22 -48 58 -40 59 12 0 47 -36 82
-59 59z m29 -52 c0 -8 -4 -15 -10 -15 -5 0 -10 7 -10 15 0 8 5 15 10 15 6 0
10 -7 10 -15z"/>
<path d="M6930 4970 c0 -5 5 -10 10 -10 6 0 10 5 10 10 0 6 -4 10 -10 10 -5 0
-10 -4 -10 -10z"/>
<path d="M6030 7680 c-28 -28 -13 -64 29 -68 38 -4 70 16 49 30 -10 6 -10 10
2 18 13 8 12 11 -5 24 -27 21 -51 20 -75 -4z m58 -13 c2 -11 -3 -17 -16 -17
-26 0 -34 11 -20 27 14 17 32 12 36 -10z"/>
<path d="M5904 7153 c-9 -33 6 -57 38 -61 27 -3 62 23 52 39 -3 6 -11 4 -17
-5 -24 -31 -73 -1 -61 37 3 9 3 17 0 17 -3 0 -9 -12 -12 -27z"/>
<path d="M5810 7079 c0 -5 5 -7 10 -4 6 3 10 8 10 11 0 2 -4 4 -10 4 -5 0 -10
-5 -10 -11z"/>
<path d="M7590 7050 c-12 -8 -10 -10 10 -10 14 0 32 5 40 10 12 8 10 10 -10
10 -14 0 -32 -5 -40 -10z"/>
<path d="M3230 7030 c-10 -19 -10 -20 10 -8 17 11 22 11 30 -2 5 -8 10 -10 10
-4 0 12 -20 34 -32 34 -4 0 -12 -9 -18 -20z"/>
<path d="M3280 6955 c-8 -9 -8 -15 -2 -15 12 0 26 19 19 26 -2 2 -10 -2 -17
-11z"/>
<path d="M3230 6952 c0 -12 19 -26 26 -19 2 2 -2 10 -11 17 -9 8 -15 8 -15 2z"/>
<path d="M6138 6839 c-39 -22 -9 -76 36 -65 19 5 24 12 22 32 -2 14 -9 30 -17
35 -17 11 -20 11 -41 -2z m38 -10 c10 -17 -13 -36 -27 -22 -12 12 -4 33 11 33
5 0 12 -5 16 -11z"/>
<path d="M3045 6760 c5 -111 38 -271 79 -390 78 -221 78 -221 121 -213 28 6
26 13 -29 146 -45 107 -82 245 -100 369 -8 51 -14 80 -15 64 -1 -28 -2 -29
-16 -10 -14 19 -14 18 -15 -3 -1 -80 69 -343 126 -472 13 -30 22 -56 19 -59
-2 -3 -9 6 -14 19 -95 241 -123 343 -146 521 l-15 113 5 -85z"/>
<path d="M5932 6758 c-15 -18 -17 -39 -9 -70 6 -23 13 -28 40 -28 44 0 73 21
63 46 -7 18 -8 18 -17 1 -7 -12 -17 -16 -30 -12 -11 4 -19 3 -18 -2 3 -20 -2
-25 -16 -13 -18 15 -20 61 -3 78 7 7 9 12 6 12 -3 0 -10 -6 -16 -12z"/>
<path d="M3187 6481 c-3 -12 -1 -21 3 -21 5 0 12 -9 15 -21 4 -11 8 -19 10
-17 2 2 -2 21 -9 42 -11 32 -14 35 -19 17z"/>
<path d="M6110 6406 c0 -2 7 -9 15 -16 9 -7 15 -8 15 -2 0 5 -7 12 -15 16 -8
3 -15 4 -15 2z"/>
<path d="M6560 6390 c0 -11 7 -20 15 -20 8 0 15 5 15 11 0 5 -5 7 -12 3 -8 -5
-9 -2 -5 9 3 10 2 17 -3 17 -6 0 -10 -9 -10 -20z"/>
<path d="M5740 6380 c-22 -6 -23 -8 -7 -15 12 -5 24 -2 35 9 17 17 12 18 -28
6z"/>
<path d="M3601 6354 c-15 -34 7 -71 52 -87 39 -13 172 -82 209 -108 47 -33 98
-17 98 31 0 17 -51 60 -71 60 -28 0 -30 -15 -2 -16 31 -2 33 -5 36 -40 2 -23
-3 -30 -19 -32 -12 -2 -30 5 -39 15 -15 14 -65 41 -103 55 -4 1 -17 11 -29 22
-21 17 -21 21 -8 36 22 25 19 33 -27 63 -54 34 -81 35 -97 1z m83 -10 c18 -47
-6 -74 -43 -48 -20 15 -28 44 -14 57 12 13 51 7 57 -9z"/>
<path d="M6150 6371 c0 -14 51 -52 62 -45 9 6 -6 31 -27 46 -14 11 -35 10 -35
-1z"/>
<path d="M3260 6305 c0 -5 5 -17 10 -25 5 -8 10 -10 10 -5 0 6 -5 17 -10 25
-5 8 -10 11 -10 5z"/>
<path d="M3286 6240 c3 -14 10 -29 15 -34 14 -16 10 6 -7 34 l-15 25 7 -25z"/>
<path d="M5843 6235 c-26 -19 -38 -70 -25 -106 6 -14 29 -47 51 -73 87 -100
94 -143 66 -371 -21 -163 -20 -242 3 -280 25 -40 100 -80 209 -109 111 -29
129 -41 173 -111 36 -57 45 -64 53 -42 6 16 23 151 42 347 15 147 65 435 79
458 7 12 -91 5 -109 -8 -5 -4 -19 -4 -30 1 -19 7 -19 8 1 8 12 1 24 7 27 15 7
18 -40 31 -58 16 -16 -14 -105 33 -210 110 -131 96 -226 160 -239 160 -6 0
-21 -7 -33 -15z m16 -24 c-13 -11 -26 -18 -28 -15 -7 7 21 34 36 34 10 0 8 -6
-8 -19z m62 -22 c7 -14 14 -18 18 -11 4 7 49 -20 118 -71 62 -45 129 -91 149
-103 l37 -21 -42 -1 c-23 -1 -64 -9 -90 -18 -26 -8 -54 -16 -62 -17 -8 -2 -20
-6 -27 -11 -7 -4 -20 -5 -29 -2 -12 5 -13 3 -5 -6 7 -9 6 -19 -5 -33 -9 -11
-13 -13 -10 -5 5 17 -24 100 -42 121 -7 8 -30 34 -52 58 -40 43 -60 80 -58
104 0 7 5 0 11 -15 12 -34 73 -67 90 -50 14 14 18 52 6 52 -4 0 -8 -9 -8 -20
0 -24 -11 -25 -50 -5 -31 16 -39 42 -18 63 19 19 56 14 69 -9z m371 -851 l-4
-68 -24 29 c-31 37 -30 60 4 87 15 12 27 21 27 21 0 -1 -1 -32 -3 -69z"/>
<path d="M5161 6196 c-26 -27 -23 -66 6 -98 22 -24 75 -23 98 2 23 25 24 76 2
98 -18 18 -19 16 -21 -58 -1 -21 -6 -25 -31 -26 -43 -1 -56 12 -43 41 13 29
36 39 54 24 9 -7 14 -8 14 -1 0 5 -7 13 -16 16 -8 3 -12 10 -9 16 13 21 -33 9
-54 -14z m17 -16 c-7 -10 -14 -17 -17 -15 -4 4 18 35 25 35 2 0 -1 -9 -8 -20z"/>
<path d="M3400 6135 c14 -8 30 -14 35 -14 6 0 -1 6 -15 14 -14 8 -29 14 -35
14 -5 0 1 -6 15 -14z"/>
<path d="M6263 6075 c2 -5 12 -10 22 -10 10 0 20 5 22 10 2 6 -8 10 -22 10
-14 0 -23 -4 -22 -10z"/>
<path d="M4013 6010 c32 -20 200 -60 212 -50 7 6 35 9 64 9 29 -1 57 3 63 9 8
8 -22 11 -103 11 -99 0 -150 5 -234 27 -18 4 -18 4 -2 -6z"/>
<path d="M4138 6003 c7 -3 16 -2 19 1 4 3 -2 6 -13 5 -11 0 -14 -3 -6 -6z"/>
<path d="M4675 5970 c-3 -5 1 -10 9 -10 9 0 16 5 16 10 0 6 -4 10 -9 10 -6 0
-13 -4 -16 -10z"/>
<path d="M5575 5950 c-4 -6 -16 -8 -27 -4 -14 4 -18 2 -14 -5 9 -14 43 -14 51
0 4 6 5 13 2 15 -3 3 -8 0 -12 -6z"/>
<path d="M4300 5945 c0 -5 5 -17 10 -25 5 -8 10 -10 10 -5 0 6 -5 17 -10 25
-5 8 -10 11 -10 5z"/>
<path d="M4728 5923 c7 -3 16 -2 19 1 4 3 -2 6 -13 5 -11 0 -14 -3 -6 -6z"/>
<path d="M4958 5606 c-15 -7 -25 -24 -29 -46 -3 -19 -7 -39 -9 -45 -9 -30 44
-75 88 -75 31 0 64 44 64 85 0 63 -62 107 -114 81z m47 -81 c0 -25 -4 -30 -25
-30 -16 0 -26 6 -28 18 -6 30 6 49 30 45 18 -2 23 -9 23 -33z"/>
<path d="M4975 5531 c-3 -5 -1 -12 5 -16 5 -3 10 1 10 9 0 18 -6 21 -15 7z"/>
<path d="M3337 5593 c-14 -13 -6 -69 13 -100 25 -41 66 -46 76 -9 12 48 -23
116 -60 116 -12 0 -26 -3 -29 -7z m66 -57 c5 -15 6 -30 2 -34 -9 -10 -35 28
-35 51 0 27 22 16 33 -17z"/>
<path d="M4555 5536 c-19 -13 -18 -14 6 -9 16 3 30 -1 39 -12 11 -14 11 -19
-4 -33 -13 -14 -20 -14 -34 -4 -28 19 -79 40 -104 42 -44 4 -54 0 -72 -31 -24
-41 -15 -91 23 -119 42 -29 68 -25 117 20 47 43 79 50 101 23 13 -17 14 -17
11 2 -2 13 -14 22 -33 26 -17 4 -25 7 -18 8 17 2 43 30 43 47 0 15 -35 54 -48
54 -5 0 -17 -6 -27 -14z m-145 -64 c0 -5 -7 -17 -15 -28 -15 -19 -20 -8 -9 20
6 17 24 22 24 8z m74 -27 c9 -24 -4 -45 -29 -45 -24 0 -42 30 -30 50 10 15 52
12 59 -5z m81 6 c3 -5 1 -12 -5 -16 -5 -3 -10 1 -10 9 0 18 6 21 15 7z"/>
<path d="M4445 5430 c3 -5 10 -10 16 -10 5 0 9 5 9 10 0 6 -7 10 -16 10 -8 0
-12 -4 -9 -10z"/>
<path d="M6485 5428 c-56 -44 -1 -114 59 -74 28 18 35 57 14 73 -27 21 -48 21
-73 1z m55 -32 c0 -20 -19 -31 -32 -18 -6 6 -7 15 -4 21 10 16 36 13 36 -3z"/>
<path d="M4554 5379 c-8 -14 11 -33 25 -25 16 10 13 36 -3 36 -8 0 -18 -5 -22
-11z"/>
<path d="M4867 5376 c78 -18 153 -58 155 -83 0 -4 9 -25 20 -46 22 -45 19 -60
-6 -23 -47 72 -101 100 -193 101 -81 0 -96 -17 -16 -20 103 -4 183 -78 204
-190 6 -33 16 -63 22 -67 9 -6 9 -8 0 -8 -6 0 -17 -17 -23 -37 -7 -21 -21 -47
-32 -59 -18 -21 -18 -21 3 -36 22 -14 21 -15 -27 -38 -56 -26 -130 -37 -171
-23 -36 12 -60 6 -66 -16 -4 -16 8 -17 147 -16 136 1 154 4 186 23 19 12 42
22 51 22 38 0 69 83 36 96 -21 8 -8 75 19 97 14 10 22 22 19 27 -3 5 -8 30
-11 57 -6 58 -44 140 -85 184 -39 42 -49 30 -16 -18 36 -53 57 -106 56 -145 0
-33 0 -33 -11 -8 -52 119 -91 166 -169 205 -25 13 -70 26 -100 29 l-54 6 62
-14z m293 -296 c0 -5 -4 -10 -10 -10 -5 0 -10 5 -10 10 0 6 5 10 10 10 6 0 10
-4 10 -10z m-40 -165 c0 -8 -4 -15 -9 -15 -13 0 -22 16 -14 24 11 11 23 6 23
-9z"/>
<path d="M4778 5373 c7 -3 16 -2 19 1 4 3 -2 6 -13 5 -11 0 -14 -3 -6 -6z"/>
<path d="M4653 5353 c15 -2 39 -2 55 0 15 2 2 4 -28 4 -30 0 -43 -2 -27 -4z"/>
<path d="M4573 5318 c-29 -29 -33 -30 -48 -15 -22 22 -31 21 -49 -5 -14 -20
-14 -24 1 -40 9 -10 22 -18 29 -18 9 0 11 -11 9 -37 -4 -35 -4 -35 4 -8 13 50
49 112 77 134 15 12 23 21 18 21 -5 0 -24 -14 -41 -32z m-73 -44 c0 -8 -4 -12
-10 -9 -5 3 -10 10 -10 16 0 5 5 9 10 9 6 0 10 -7 10 -16z"/>
<path d="M3423 5287 c6 -15 17 -27 24 -27 16 0 36 -38 29 -56 -3 -8 4 -20 15
-27 12 -6 30 -31 40 -54 18 -42 39 -57 39 -29 0 20 -92 155 -129 190 l-31 30
13 -27z"/>
<path d="M4754 5276 c-36 -16 -76 -65 -100 -121 -42 -101 30 -224 154 -261 40
-12 52 -12 92 1 117 39 157 157 95 280 -37 73 -85 107 -158 112 -31 2 -65 -2
-83 -11z m172 -48 c19 -21 19 -21 -1 -13 -37 15 -85 17 -116 5 -34 -14 -48 -8
-29 15 8 10 31 15 70 15 46 0 61 -4 76 -22z m-190 -19 c-5 -27 -4 -30 12 -23
32 14 87 15 112 2 24 -13 40 -39 55 -85 9 -31 -13 -30 -25 1 -13 36 -35 46
-26 12 7 -28 -2 -34 -22 -14 -10 10 -11 6 -6 -20 4 -19 2 -38 -5 -46 -8 -9 -8
-16 -2 -20 6 -4 7 -14 4 -24 -7 -16 -5 -16 17 -1 14 9 30 26 36 38 6 12 15 21
20 19 32 -10 -48 -99 -86 -96 -21 3 -24 -1 -22 -19 2 -13 0 -23 -4 -23 -14 0
-72 41 -78 55 -7 19 9 19 38 -1 18 -11 26 -12 32 -3 4 7 3 9 -4 5 -6 -3 -14
-1 -18 5 -5 8 1 10 20 7 14 -3 26 -1 26 3 0 5 -6 9 -14 9 -8 0 -26 10 -40 23
-27 24 -44 67 -27 67 6 0 11 -9 11 -20 0 -19 46 -58 56 -47 3 3 -4 8 -15 12
-24 7 -36 43 -26 76 5 14 4 19 -4 15 -13 -8 -14 13 -3 32 5 7 16 10 26 6 13
-5 14 -9 5 -20 -8 -9 -8 -14 -1 -14 6 0 14 9 17 20 4 12 16 20 28 21 19 0 19
2 -5 11 -45 16 -80 -8 -97 -64 -15 -50 -41 -65 -41 -25 0 13 -4 27 -9 33 -19
19 34 124 62 124 5 0 7 -13 3 -31z m249 -33 c9 -14 15 -37 13 -53 -2 -22 -9
-29 -30 -31 -23 -3 -31 3 -45 32 -16 34 -16 37 2 56 24 26 41 25 60 -4z"/>
<path d="M5193 5265 c0 -8 4 -12 9 -9 5 3 6 10 3 15 -9 13 -12 11 -12 -6z"/>
<path d="M3400 5203 c0 -5 16 -26 36 -48 l36 -40 -33 48 c-32 47 -39 54 -39
40z"/>
<path d="M4567 5203 c-4 -3 -7 -20 -6 -37 l1 -31 8 35 c9 36 8 45 -3 33z"/>
<path d="M5216 5177 c3 -10 9 -15 12 -12 3 3 0 11 -7 18 -10 9 -11 8 -5 -6z"/>
<path d="M6131 5164 c-1 -20 26 -41 37 -29 3 3 0 5 -7 5 -6 0 -16 10 -21 23
-9 22 -9 22 -9 1z"/>
<path d="M5590 5166 c0 -3 50 -46 111 -96 153 -125 353 -241 382 -223 6 3 7 1
3 -6 -6 -9 0 -10 20 -5 15 4 25 3 22 -2 -5 -8 88 -11 146 -6 18 2 18 3 3 15
-9 6 -33 45 -54 86 l-38 74 -55 12 c-30 7 -68 15 -85 19 -16 4 -25 4 -19 -1 6
-4 26 -35 43 -68 18 -33 30 -52 27 -43 -3 9 -8 33 -12 54 -11 61 12 32 37 -46
16 -47 29 -72 42 -76 10 -3 16 -8 14 -10 -3 -3 -25 4 -49 16 -36 17 -55 36
-92 95 -47 74 -59 85 -111 105 -25 9 -26 8 -24 -17 2 -16 7 -34 12 -40 6 -8 6
-13 0 -13 -5 0 -9 -8 -10 -19 -1 -12 11 -25 32 -37 19 -10 33 -20 30 -22 -5
-5 -111 55 -170 96 -27 19 -85 64 -127 99 -43 36 -78 62 -78 59z"/>
<path d="M4511 5097 c-1 -34 19 -75 50 -102 19 -17 19 -14 -4 13 -15 19 -29
43 -32 55 -2 12 -6 31 -8 42 -3 14 -5 12 -6 -8z"/>
<path d="M5462 5098 c-28 -28 -7 -78 33 -78 32 0 48 15 48 45 0 41 -52 62 -81
33z m38 -33 c0 -8 -7 -15 -15 -15 -8 0 -15 7 -15 15 0 8 7 15 15 15 8 0 15 -7
15 -15z"/>
<path d="M4299 5080 c-1 -5 -2 -16 -3 -22 -1 -8 -18 -14 -43 -14 -23 -1 -42 1
-41 5 4 33 -31 43 -64 18 -15 -12 -14 -14 10 -24 15 -6 66 -13 114 -16 81 -6
89 -4 99 14 16 32 4 49 -36 49 -19 0 -36 -4 -36 -10z m45 -31 c-3 -5 -10 -7
-15 -3 -5 3 -7 10 -3 15 3 5 10 7 15 3 5 -3 7 -10 3 -15z"/>
<path d="M4473 5078 c-34 -43 -35 -59 -9 -98 22 -34 81 -82 62 -51 -13 20 27
25 58 7 30 -16 30 -16 -4 13 -19 16 -44 29 -55 28 -16 -2 -20 3 -18 26 1 15
-4 41 -11 58 -10 23 -15 27 -23 17z"/>
<path d="M4613 4958 c16 -13 37 -34 48 -48 12 -14 17 -18 13 -10 -11 24 -47
61 -69 72 -11 5 -8 0 8 -14z"/>
<path d="M4338 4953 c12 -2 30 -2 40 0 9 3 -1 5 -23 4 -22 0 -30 -2 -17 -4z"/>
<path d="M4970 4900 c0 -5 5 -10 10 -10 6 0 10 5 10 10 0 6 -4 10 -10 10 -5 0
-10 -4 -10 -10z"/>
<path d="M4705 4870 c10 -11 20 -20 23 -20 3 0 -3 9 -13 20 -10 11 -20 20 -23
20 -3 0 3 -9 13 -20z"/>
<path d="M5170 4845 c-34 -37 -34 -72 0 -106 34 -35 62 -37 90 -7 26 28 25 58
-2 94 -40 52 -54 55 -88 19z m65 -25 c3 -5 1 -10 -4 -10 -6 0 -11 5 -11 10 0
6 2 10 4 10 3 0 8 -4 11 -10z m-20 -31 c4 -12 2 -26 -4 -32 -15 -15 -46 16
-38 37 9 23 34 20 42 -5z"/>
<path d="M4287 4840 c-53 -33 -59 -121 -11 -172 85 -88 203 51 126 149 -20 26
-88 39 -115 23z m98 -40 c11 -12 19 -36 19 -55 0 -45 -28 -75 -69 -75 -59 0
-88 69 -51 124 21 33 74 36 101 6z"/>
<path d="M4551 4804 c0 -11 3 -14 6 -6 3 7 2 16 -1 19 -3 4 -6 -2 -5 -13z"/>
<path d="M4635 4798 c-7 -16 -17 -22 -33 -21 -13 2 -21 -1 -17 -7 17 -27 70 2
63 35 -2 12 -5 11 -13 -7z"/>
<path d="M5062 4781 c10 -17 9 -23 -7 -41 -16 -18 -17 -20 -2 -14 29 11 35 74
6 74 -5 0 -4 -9 3 -19z"/>
<path d="M3991 4751 c6 -13 9 -42 6 -64 -4 -27 -2 -36 4 -26 14 22 11 73 -7
95 -14 18 -15 18 -3 -5z"/>
<path d="M5934 4686 c-46 -46 -45 -113 2 -135 47 -21 103 -14 135 18 37 37 38
79 3 120 -21 25 -33 31 -66 31 -32 0 -47 -7 -74 -34z m146 -16 c6 -11 8 -25 4
-32 -4 -7 -12 -2 -20 13 -11 21 -10 39 1 39 2 0 9 -9 15 -20z m-59 -10 c38
-21 12 -79 -31 -65 -22 7 -27 44 -8 63 15 15 15 15 39 2z"/>
<path d="M5992 4629 c2 -6 8 -10 13 -10 5 0 11 4 13 10 2 6 -4 11 -13 11 -9 0
-15 -5 -13 -11z"/>
<path d="M6489 4661 c-35 -35 -37 -65 -6 -85 68 -45 154 37 97 94 -28 28 -57
25 -91 -9z m101 -22 c0 -6 -4 -7 -10 -4 -5 3 -10 11 -10 16 0 6 5 7 10 4 6 -3
10 -11 10 -16z m-33 0 c14 -14 6 -39 -12 -39 -18 0 -28 17 -21 35 6 18 18 19
33 4z"/>
<path d="M5076 4621 c-10 -16 5 -41 24 -41 28 0 36 21 15 37 -22 15 -32 16
-39 4z"/>
<path d="M4700 4580 c0 -5 7 -10 15 -10 8 0 15 -9 15 -20 0 -27 -28 -25 -40 3
-9 21 -9 21 -9 -4 -1 -22 4 -27 29 -31 17 -3 33 -1 36 3 11 19 152 -8 164 -32
14 -24 13 -29 -6 -29 -8 0 -12 -4 -9 -10 14 -23 -11 -7 -40 26 -27 30 -37 35
-66 32 -34 -3 -48 -27 -21 -35 6 -3 12 3 12 12 0 12 5 15 18 10 9 -4 22 -8 29
-8 16 0 12 -38 -6 -56 -10 -12 -19 -12 -42 -4 -21 8 -31 8 -36 0 -5 -7 -10 0
-13 17 -6 36 -35 43 -38 9 -3 -33 24 -93 41 -93 8 0 26 -9 41 -21 14 -11 26
-16 26 -10 0 21 19 11 23 -11 l4 -23 2 23 c1 24 31 32 31 7 0 -21 -34 -37 -48
-23 -8 8 -12 8 -12 1 0 -22 30 -37 57 -27 20 7 31 24 50 79 13 39 26 82 28 97
1 15 10 34 19 43 41 41 -57 103 -134 85 -29 -7 -31 -8 -10 -10 21 -1 19 -3
-14 -16 -41 -15 -55 -8 -56 24 0 6 -9 12 -20 12 -11 0 -20 -4 -20 -10z m202
-27 c-6 -2 -9 -10 -5 -16 4 -7 -2 -5 -13 3 -10 8 -21 16 -23 17 -2 2 9 3 25 2
16 0 23 -3 16 -6z m28 -22 c0 -6 -4 -13 -10 -16 -5 -3 -10 1 -10 9 0 9 5 16
10 16 6 0 10 -4 10 -9z m10 -32 c-7 -11 -14 -18 -17 -15 -3 3 0 12 7 21 18 21
23 19 10 -6z m-80 -69 c-13 -24 -47 -43 -54 -31 -3 4 6 13 19 19 14 7 25 16
25 22 0 5 5 10 10 10 7 0 7 -6 0 -20z m-75 -30 c-3 -5 4 -12 16 -15 l21 -7
-21 -14 c-16 -11 -26 -12 -41 -4 -18 10 -26 30 -15 41 8 9 45 8 40 -1z"/>
<path d="M3755 4496 c-5 -11 -3 -21 5 -26 14 -8 5 -91 -10 -87 -10 3 -11 -10
-4 -50 4 -19 12 -33 20 -33 17 0 19 36 2 44 -10 5 -10 7 0 12 13 6 15 92 2
134 -6 22 -8 23 -15 6z"/>
<path d="M7096 4275 c-27 -27 -32 -66 -11 -82 30 -21 72 -16 91 11 33 52 -36
114 -80 71z m72 -44 c4 -35 -13 -47 -53 -37 -18 5 -25 13 -25 30 0 62 72 68
78 7z"/>
<path d="M6490 4170 c8 -5 20 -10 25 -10 6 0 3 5 -5 10 -8 5 -19 10 -25 10 -5
0 -3 -5 5 -10z"/>
<path d="M3762 4080 c0 -14 2 -19 5 -12 2 6 2 18 0 25 -3 6 -5 1 -5 -13z"/>
<path d="M6956 4089 c6 -10 184 -72 190 -66 3 3 -20 14 -52 24 -54 17 -56 18
-29 23 23 4 13 8 -42 15 -39 6 -70 8 -67 4z"/>
<path d="M7160 4055 c72 -18 98 -18 40 1 -25 7 -56 13 -70 13 -14 0 -1 -7 30
-14z"/>
<path d="M3737 4033 c-3 -5 -7 -21 -8 -38 -3 -25 0 -30 16 -30 16 0 21 8 23
38 2 28 -1 37 -12 37 -8 0 -17 -3 -19 -7z"/>
<path d="M6030 4030 c-8 -5 -12 -12 -8 -15 3 -3 117 -13 252 -20 276 -17 396
-29 488 -49 35 -8 81 -17 103 -20 39 -6 39 -6 14 8 -58 33 -184 56 -359 66
-96 5 -240 16 -320 25 -172 17 -152 17 -170 5z"/>
<path d="M7168 4013 c7 -3 16 -2 19 1 4 3 -2 6 -13 5 -11 0 -14 -3 -6 -6z"/>
<path d="M3717 3883 c-10 -9 -9 -113 1 -113 25 1 42 30 42 74 0 38 -3 46 -18
46 -10 0 -22 -3 -25 -7z"/>
<path d="M3723 3724 c9 -56 27 -67 27 -17 0 29 -5 43 -16 47 -14 5 -16 1 -11
-30z"/>
<path d="M3874 3706 c-3 -14 -4 -31 -1 -38 3 -7 6 -1 6 14 1 14 6 28 13 30 9
3 9 6 0 12 -7 4 -14 -2 -18 -18z"/>
<path d="M3895 3680 c-8 -13 -1 -24 14 -19 6 3 7 10 2 18 -6 10 -10 10 -16 1z"/>
<path d="M3864 3625 c-9 -38 3 -98 23 -113 22 -16 30 -6 37 43 5 30 4 35 -3
19 -5 -12 -14 -25 -20 -29 -16 -9 -30 35 -20 67 4 15 3 30 -1 33 -5 3 -12 -6
-16 -20z"/>
<path d="M4884 3555 c0 -22 5 -35 13 -35 14 0 17 27 7 54 -10 27 -20 18 -20
-19z"/>
<path d="M3691 3481 c-12 -16 -21 -34 -21 -39 0 -9 30 -26 35 -20 6 7 16 88
12 88 -3 0 -15 -13 -26 -29z"/>
<path d="M3611 3351 c-25 -58 -26 -68 -8 -52 8 6 16 9 18 7 2 -2 16 -6 31 -10
25 -6 28 -3 37 31 18 64 15 73 -23 73 -31 0 -35 -4 -55 -49z"/>
<path d="M4372 3273 c-31 -11 -42 -19 -38 -30 8 -19 -34 -54 -56 -47 -26 8
-42 -33 -41 -107 2 -105 36 -152 135 -185 76 -25 138 -15 183 31 20 19 40 33
46 30 18 -12 42 67 36 122 -8 75 -50 133 -127 172 -52 27 -90 30 -138 14z m83
-87 c57 -24 72 -81 34 -130 -16 -20 -29 -26 -62 -26 -112 0 -120 138 -9 169 1
1 18 -5 37 -13z m-107 -208 c17 -17 15 -33 -3 -18 -13 11 -14 10 -8 -6 6 -17
5 -17 -10 -6 -8 8 -13 20 -10 28 6 17 15 18 31 2z"/>
<path d="M4390 3125 c-20 -24 0 -50 36 -50 26 0 29 4 29 30 0 25 -4 31 -26 33
-15 2 -31 -4 -39 -13z"/>
<path d="M3557 3171 c-18 -78 -23 -217 -8 -240 7 -11 11 -9 21 9 18 33 80 221
80 241 0 18 -19 29 -50 29 -10 0 -20 8 -22 18 -2 9 -12 -16 -21 -57z"/>
<path d="M5930 2756 c-12 -32 -13 -52 -2 -97 6 -29 8 -23 12 41 7 85 5 94 -10
56z"/>
<path d="M4271 2707 c-6 -8 -8 -17 -4 -21 4 -3 -2 -12 -12 -20 -10 -7 -16 -20
-12 -28 4 -12 0 -14 -14 -11 -34 9 -11 -25 35 -52 54 -32 115 -41 141 -22 15
12 20 27 20 61 0 63 -41 106 -101 106 -23 0 -47 -6 -53 -13z m105 -28 c40 -44
-27 -72 -70 -29 -16 16 -17 22 -6 34 18 22 53 20 76 -5z m-76 -69 c0 -5 -7
-10 -15 -10 -8 0 -15 5 -15 10 0 6 7 10 15 10 8 0 15 -4 15 -10z m90 -25 c0
-8 -7 -15 -15 -15 -8 0 -15 7 -15 15 0 8 7 15 15 15 8 0 15 -7 15 -15z"/>
<path d="M4330 2660 c0 -5 5 -10 11 -10 5 0 7 5 4 10 -3 6 -8 10 -11 10 -2 0
-4 -4 -4 -10z"/>
<path d="M3430 2640 c0 -5 9 -10 19 -10 11 0 28 -3 38 -6 16 -6 16 -5 -2 9
-22 18 -55 22 -55 7z"/>
<path d="M3310 2604 c-31 -8 -37 -13 -20 -13 14 0 39 6 55 14 37 17 24 16 -35
-1z"/>
<path d="M2903 2600 c-16 -6 -23 -18 -23 -35 0 -14 -7 -28 -16 -32 -13 -5 -9
-10 17 -24 29 -16 31 -18 12 -19 -18 0 -23 -6 -23 -25 0 -45 25 -50 290 -50
135 0 256 3 270 7 14 4 36 24 49 45 14 21 34 46 45 55 l21 18 -22 0 c-13 0
-23 4 -23 10 0 5 -11 17 -25 26 -22 15 -32 15 -84 3 l-58 -12 33 -34 c18 -18
39 -34 46 -34 7 -1 -7 -5 -32 -10 -96 -17 -426 -6 -446 14 -4 4 0 15 8 24 9
10 13 24 11 31 -3 7 0 19 6 26 9 10 8 15 -5 20 -19 7 -23 7 -51 -4z m32 -30
c-3 -5 -10 -10 -16 -10 -5 0 -9 5 -9 10 0 6 7 10 16 10 8 0 12 -4 9 -10z"/>
<path d="M3026 2601 c5 -5 47 -11 94 -14 76 -5 79 -5 25 3 -33 5 -75 11 -94
14 -19 3 -30 2 -25 -3z"/>
<path d="M3243 2573 c-13 -2 -23 -10 -23 -17 0 -12 42 -12 80 0 13 5 13 6 0
14 -16 10 -20 10 -57 3z"/>
<path d="M3510 2459 c-19 -10 -28 -18 -19 -19 9 0 27 9 40 20 29 24 25 23 -21
-1z"/>
<path d="M2490 2375 c0 -3 9 -15 20 -27 26 -28 14 -45 -14 -20 -25 24 -50 17
-74 -19 -9 -15 -68 -71 -130 -126 -105 -93 -115 -100 -137 -89 -13 6 -20 13
-15 14 12 4 14 23 3 20 -5 0 -16 2 -26 7 -11 5 -24 2 -36 -9 -10 -9 -20 -14
-22 -11 -6 6 -172 -133 -178 -149 -4 -12 14 1 64 43 16 15 27 22 23 18 -3 -5
2 -29 13 -55 l20 -45 -38 -40 c-21 -21 -75 -70 -120 -109 -46 -38 -83 -74 -83
-81 1 -7 16 -30 35 -51 l35 -39 88 84 c48 47 141 132 207 189 66 57 148 130
182 163 l61 60 -29 24 c-32 27 -38 57 -13 67 30 12 53 6 72 -19 l20 -25 37 42
c33 39 95 135 95 148 0 3 -13 14 -30 23 -16 10 -30 15 -30 12z"/>
<path d="M2200 2234 c-7 -8 -18 -14 -24 -14 -7 0 -35 -21 -62 -47 -28 -27 -40
-40 -28 -30 16 13 24 15 29 7 5 -8 22 2 50 30 28 28 49 41 59 37 10 -4 16 -1
16 7 0 20 -27 27 -40 10z"/>
<path d="M5850 2131 c0 -6 -7 -8 -15 -5 -9 4 -15 0 -15 -8 0 -20 27 -54 36
-46 11 11 13 57 3 64 -5 3 -9 1 -9 -5z"/>
<path d="M4567 2034 c-3 -3 -3 -13 0 -22 4 -10 2 -13 -5 -8 -8 4 -12 0 -12
-12 0 -19 34 -56 60 -64 25 -8 50 11 50 38 0 43 -68 93 -93 68z m72 -33 c15
-28 -11 -48 -33 -26 -9 9 -16 23 -16 31 0 21 38 17 49 -5z"/>
<path d="M3937 1993 c-12 -11 -8 -21 13 -26 24 -6 38 12 19 24 -17 11 -24 11
-32 2z"/>
<path d="M4094 1989 c-3 -6 0 -15 7 -20 8 -4 16 -4 20 2 3 5 14 6 25 2 17 -6
17 -5 5 10 -15 19 -46 22 -57 6z"/>
<path d="M4006 1925 c-21 -19 -26 -33 -26 -70 0 -41 5 -52 43 -91 50 -54 102
-70 153 -49 32 13 55 42 53 67 0 7 -5 1 -10 -13 -13 -34 -58 -53 -104 -45 -73
14 -141 117 -112 172 7 13 14 23 17 23 3 0 18 5 35 11 59 22 165 -45 165 -106
0 -13 4 -24 9 -24 14 0 -4 54 -28 89 -44 62 -146 81 -195 36z"/>
<path d="M3882 1874 c-27 -12 -31 -18 -27 -39 3 -14 7 -36 10 -50 6 -29 39
-35 49 -9 6 15 8 15 28 -2 l21 -19 -17 32 c-9 18 -16 42 -16 55 1 23 1 23 16
3 15 -19 15 -19 12 10 -4 35 -26 41 -76 19z"/>
<path d="M3831 1814 c-1 -49 5 -73 30 -122 51 -104 134 -155 251 -156 37 -1
72 4 78 10 8 8 -2 10 -37 7 -35 -3 -54 0 -68 12 -19 16 -18 16 18 10 89 -14
207 53 193 109 -7 27 -26 36 -26 13 0 -15 -46 -33 -107 -43 -39 -6 -43 -5 -43
14 0 24 -59 50 -71 31 -5 -8 -17 -5 -40 11 -22 15 -28 17 -17 5 15 -16 15 -19
-2 -37 -10 -12 -24 -17 -30 -13 -7 4 -17 1 -22 -6 -8 -11 -9 -10 -4 3 3 11 -5
26 -23 41 -36 30 -51 58 -67 122 l-12 50 -1 -61z m274 -144 c3 -5 -1 -10 -9
-10 -8 0 -18 5 -21 10 -3 6 1 10 9 10 8 0 18 -4 21 -10z m-55 -80 c8 -5 11
-10 5 -10 -5 0 -17 5 -25 10 -8 5 -10 10 -5 10 6 0 17 -5 25 -10z"/>
<path d="M4286 1813 c6 -31 5 -35 -10 -30 -12 5 -19 -1 -26 -19 -13 -34 -13
-41 2 -26 16 16 38 15 38 -2 0 -8 7 -16 15 -20 21 -8 20 62 -1 92 -8 12 -12
27 -9 32 3 6 1 10 -5 10 -7 0 -9 -12 -4 -37z"/>
<path d="M5870 1782 c0 -15 84 -147 100 -157 24 -15 17 2 -31 75 -55 84 -69
100 -69 82z"/>
<path d="M2256 1765 c-86 -22 -226 -92 -341 -169 -154 -105 -348 -267 -334
-280 2 -2 49 32 104 76 179 144 353 252 491 307 107 41 286 47 379 11 20 -8
20 -8 0 -16 -11 -4 -39 -20 -62 -36 -23 -15 -46 -28 -51 -28 -6 0 -7 -12 -4
-27 6 -24 26 -37 128 -88 66 -33 147 -75 179 -94 l59 -33 -27 -20 c-38 -28
-74 -92 -90 -164 -9 -38 -30 -85 -54 -120 -45 -67 -87 -144 -77 -144 4 0 1 -6
-5 -14 -10 -12 6 -23 86 -67 122 -65 249 -135 423 -233 88 -49 138 -72 144
-66 6 6 20 10 32 10 13 0 26 5 29 10 4 6 10 8 15 5 11 -7 62 57 146 185 l69
105 3 -40 c1 -23 -19 -125 -46 -238 -48 -194 -49 -199 -31 -220 l18 -22 1 25
c1 14 7 39 15 55 16 33 15 28 -5 -66 -7 -34 -4 -86 10 -205 11 -87 20 -160 20
-161 0 -2 92 -3 205 -3 169 0 205 2 205 14 0 33 -120 966 -131 1016 -25 121
-57 154 -264 278 -351 209 -662 368 -840 428 -97 33 -123 38 -225 40 -78 3
-134 -1 -174 -11z m826 -356 c51 -13 151 -82 190 -132 l32 -42 -50 46 c-70 64
-91 75 -99 49 -3 -11 -11 -20 -16 -20 -6 0 -5 8 1 21 7 11 9 27 6 34 -6 16
-77 38 -98 30 -18 -7 -68 11 -68 25 0 10 32 6 102 -11z m-126 -4 c10 -8 14
-15 7 -15 -6 0 -18 -6 -25 -13 -7 -7 -28 -23 -45 -35 -18 -13 -43 -45 -55 -72
-21 -46 -26 -50 -66 -56 -24 -3 -46 -4 -49 0 -9 9 14 79 39 116 25 36 116 90
152 90 12 0 31 -7 42 -15z m172 -134 c171 -88 156 -315 -19 -299 -99 10 -182
102 -185 205 -1 54 10 73 61 101 31 18 102 14 143 -7z m216 -108 c30 -62 43
-117 25 -111 -7 2 -18 29 -24 59 -6 30 -17 64 -23 77 -7 12 -10 22 -8 22 3 0
16 -21 30 -47z m-474 -45 c0 -11 -38 -10 -44 1 -3 5 5 8 19 7 14 0 25 -4 25
-8z m396 -82 c-7 -38 -64 -96 -94 -96 -14 1 -14 2 3 12 41 22 75 62 81 95 4
19 9 32 11 29 3 -3 2 -21 -1 -40z m330 -41 c-8 -22 -19 -56 -25 -75 l-10 -35
4 40 c3 22 1 46 -4 54 -6 10 -3 23 12 43 28 37 41 22 23 -27z m-816 -15 c6
-11 8 -20 6 -20 -3 0 -10 9 -16 20 -6 11 -8 20 -6 20 3 0 10 -9 16 -20z m924
-769 c38 -42 13 -161 -30 -144 -32 12 -40 116 -12 150 14 18 22 16 42 -6z
m-94 -21 c5 0 7 -7 4 -15 -4 -8 -10 -13 -14 -10 -5 3 -11 -3 -13 -12 -3 -10
-5 -2 -6 18 -1 37 12 63 17 35 2 -9 7 -16 12 -16z"/>
<path d="M3115 1231 c41 -25 85 -78 86 -104 1 -17 2 -18 6 -4 9 35 -73 127
-113 127 -5 0 5 -8 21 -19z"/>
<path d="M3009 1169 c-27 -27 -19 -64 22 -101 51 -48 109 -29 109 35 -1 72
-84 113 -131 66z"/>
<path d="M3660 145 c0 -15 4 -24 10 -20 6 3 10 12 10 20 0 8 -4 17 -10 20 -6
4 -10 -5 -10 -20z"/>
<path d="M5782 1729 c-23 -9 -22 -11 40 -79 35 -38 66 -70 69 -70 4 0 10 7 13
17 8 19 -32 66 -50 59 -13 -5 -71 50 -62 59 2 3 13 -4 23 -15 10 -11 22 -20
27 -20 5 0 2 7 -6 16 -9 8 -16 22 -16 30 0 16 -6 17 -38 3z m89 -96 c13 -16
12 -17 -3 -4 -10 7 -18 15 -18 17 0 8 8 3 21 -13z"/>
<path d="M2170 1581 c-89 -36 -171 -93 -259 -179 -54 -52 -92 -97 -94 -112 -7
-36 -29 -151 -35 -179 -5 -23 -3 -24 34 -18 21 4 73 7 114 7 l75 0 44 138 c88
278 102 309 156 347 26 19 20 18 -35 -4z"/>
<path d="M4203 1223 c9 -2 23 -2 30 0 6 3 -1 5 -18 5 -16 0 -22 -2 -12 -5z"/>
<path d="M4128 1213 c6 -2 18 -2 25 0 6 3 1 5 -13 5 -14 0 -19 -2 -12 -5z"/>
<path d="M5640 1172 c0 -8 111 -33 119 -27 1 2 -17 9 -40 15 -24 6 -52 13 -61
16 -10 3 -18 1 -18 -4z"/>
<path d="M6522 988 c13 -35 15 -35 14 0 -1 16 -6 29 -12 29 -9 0 -9 -8 -2 -29z"/>
<path d="M6706 790 c-4 -24 -11 -38 -17 -35 -6 4 -7 -3 -3 -22 9 -39 11 -39
19 -4 5 24 12 31 31 31 23 0 24 -2 24 -76 l0 -76 -29 7 -28 6 -6 -103 c-3 -57
-12 -123 -21 -148 -8 -24 -13 -46 -11 -48 10 -10 43 12 68 46 27 35 28 41 22
106 -5 44 -4 71 3 75 6 3 14 62 18 130 5 97 4 122 -5 116 -7 -4 -22 2 -35 14
l-23 22 -7 -41z"/>
<path d="M6595 800 c-3 -6 1 -7 9 -4 18 7 21 14 7 14 -6 0 -13 -4 -16 -10z"/>
<path d="M6633 786 c4 -10 1 -13 -9 -9 -18 7 -18 4 2 -43 22 -53 16 -224 -10
-274 l-19 -35 22 19 c23 21 27 16 10 -17 -11 -21 -11 -21 7 -5 34 33 52 281
25 346 -13 31 -39 48 -28 18z"/>
<path d="M4720 760 c-6 -12 -8 -29 -5 -40 7 -23 43 -36 58 -21 8 8 7 11 -3 11
-7 0 -21 8 -30 18 -16 16 -15 18 9 34 25 17 25 18 4 18 -12 0 -27 -9 -33 -20z"/>
<path d="M1422 656 l-57 -55 0 -73 c0 -94 17 -132 70 -163 87 -52 169 -21 199
73 37 118 31 189 -20 240 -17 17 -40 32 -49 32 -15 0 -15 -1 -1 -16 9 -8 16
-20 16 -25 0 -16 -30 -23 -43 -10 -9 9 -8 11 7 5 14 -5 17 -4 12 5 -4 6 -17
11 -29 9 -16 -2 -22 2 -21 15 3 31 -27 18 -84 -37z m88 -55 c24 -45 4 -107
-41 -132 -16 -8 -26 -7 -45 6 -52 34 -17 145 46 145 19 0 33 -7 40 -19z"/>
<path d="M1448 555 c-13 -28 4 -58 27 -48 20 7 29 42 15 58 -18 21 -29 19 -42
-10z"/>
<path d="M6603 650 c-15 -6 -20 -15 -16 -29 6 -23 19 -27 26 -8 4 9 6 9 6 0 1
-6 -3 -15 -9 -18 -5 -3 -10 -11 -10 -18 0 -8 4 -7 13 2 6 6 12 28 12 47 0 18
0 34 0 33 0 0 -10 -4 -22 -9z"/>
<path d="M5293 560 c-33 -14 -56 -55 -48 -87 19 -79 103 -97 135 -30 10 20 10
20 -3 5 -20 -26 -64 -23 -78 5 -7 12 -17 25 -22 29 -6 4 -4 12 6 22 9 9 14 23
11 30 -4 9 3 13 21 11 16 -2 25 1 22 8 -5 15 -18 17 -44 7z"/>
<path d="M5350 552 c0 -5 7 -15 15 -22 8 -7 15 -8 15 -2 0 5 -7 15 -15 22 -8
7 -15 8 -15 2z"/>
<path d="M6587 409 c7 -7 15 -10 18 -7 3 3 -2 9 -12 12 -14 6 -15 5 -6 -5z"/>
<path d="M6656 253 c18 -131 34 -177 55 -156 10 10 10 27 0 78 -14 77 -29 115
-47 115 -9 0 -11 -11 -8 -37z"/>
<path d="M1330 106 c-64 -39 -98 -73 -100 -98 0 -5 14 -8 30 -8 17 0 30 4 30
10 0 5 27 37 60 70 84 86 83 87 -20 26z"/>
</g>
</svg>
